<?xml version="1.0" standalone="no"?>
<!DOCTYPE svg PUBLIC "-//W3C//DTD SVG 1.1//EN" "http://www.w3.org/Graphics/SVG/1.1/DTD/svg11.dtd" >
<svg xmlns="http://www.w3.org/2000/svg" xmlns:xlink="http://www.w3.org/1999/xlink" version="1.1">
<metadata>
Created by FontForge 20161003 at Wed Dec  7 11:47:31 2016
 By www-data
Digitized data copyright 1991 The Monotype Corporation. All rights reserved.
</metadata>
<defs>
<font id="CenturyGothicStdItalic" horiz-adv-x="554" >
  <font-face 
    font-family="CenturyGothicStdItalic"
    font-weight="500"
    font-style="italic"
    font-stretch="normal"
    units-per-em="1000"
    panose-1="2 11 5 2 2 2 2 9 2 4"
    ascent="736"
    descent="-264"
    x-height="531"
    cap-height="718"
    bbox="-192 -230 1172 958"
    underline-thickness="50"
    underline-position="-150"
    slope="-8"
    unicode-range="U+0020-FB02"
  />
<missing-glyph horiz-adv-x="500" 
d="M12 0v665h475v-665h-475zM88 618l162 -243l161 243h-323zM60 575v-484l40 61l80 120l41 61zM440 575l-162 -242l162 -243v485zM411 48l-161 242l-162 -242h323z" />
    <glyph glyph-name="fi" unicode="fi" horiz-adv-x="487" 
d="M189 531h108l-7 -60h-110l-67 -471h-69l65 471h-68l9 60h70l8 53q25 165 169 165q62 0 99 -34t43 -97h-70q-9 68 -74 68q-46 0 -68.5 -26.5t-30.5 -81.5zM358 531h69l-77 -531h-67z" />
    <glyph glyph-name="fl" unicode="fl" horiz-adv-x="485" 
d="M191 531h109l-9 -60h-109l-67 -471h-66l66 471h-73l7 60h73q17 112 53 165.5t117 53.5q63 0 102 -38.5t39 -109.5q0 -24 -6 -64l-74 -538h-70l79 555q3 23 3 49q0 79 -75 79q-41 0 -63 -26.5t-30 -83.5z" />
    <glyph glyph-name=".notdef" horiz-adv-x="500" 
d="M12 0v665h475v-665h-475zM88 618l162 -243l161 243h-323zM60 575v-484l40 61l80 120l41 61zM440 575l-162 -242l162 -243v485zM411 48l-161 242l-162 -242h323z" />
    <glyph glyph-name=".null" horiz-adv-x="0" 
 />
    <glyph glyph-name="nonmarkingreturn" horiz-adv-x="333" 
 />
    <glyph glyph-name="space" unicode=" " horiz-adv-x="277" 
 />
    <glyph glyph-name="exclam" unicode="!" horiz-adv-x="295" 
d="M81 179l74 557h67l-73 -557h-68zM101 105q25 0 42 -17t17 -42t-17 -42.5t-42 -17.5t-42.5 18t-17.5 42q0 25 17.5 42t42.5 17z" />
    <glyph glyph-name="quotedbl" unicode="&#x22;" horiz-adv-x="309" 
d="M312 736l-11 -226h-50l-11 226h72zM122 736l-11 -226h-50l-11 226h72z" />
    <glyph glyph-name="numbersign" unicode="#" horiz-adv-x="720" 
d="M490 294h112v-53h-121l-35 -241h-54l35 241h-163l-37 -241h-54l37 241h-120v53h128l25 163h-123v53h131l34 229h53l-34 -229h163l33 229h54l-33 -229h109v-53h-117zM434 294l25 163h-163l-24 -163h162z" />
    <glyph glyph-name="dollar" unicode="$" 
d="M373 772l-9 -59q47 -13 78 -35.5t62 -64.5l-56 -41q-27 32 -46 47.5t-47 25.5l-36 -246q85 -47 124.5 -93t39.5 -115q0 -82 -60.5 -142.5t-163.5 -67.5l-22 -152h-65l23 156q-133 26 -186 146l63 32q23 -47 53.5 -73t79.5 -39l44 304q-71 39 -109.5 82.5t-38.5 102.5
q0 71 58 123t142 55l8 54h64zM259 430l32 222q-58 -9 -90 -39.5t-32 -71.5q0 -39 23.5 -64.5t66.5 -46.5zM308 324l-39 -276q73 11 109.5 49t36.5 89q0 45 -26.5 74.5t-80.5 63.5z" />
    <glyph glyph-name="percent" unicode="%" horiz-adv-x="775" 
d="M431 713q123 0 246 37h51l-638 -800h-57l587 738q-96 -23 -189 -23q-11 0 -34 2t-28 2q24 -40 24 -81q0 -80 -54 -136t-138 -56q-68 0 -109 42t-41 106q0 78 57.5 135t130.5 57q16 0 78.5 -11.5t113.5 -11.5zM240 684q-55 0 -92.5 -41.5t-37.5 -93.5q0 -43 27 -72t70 -29
q54 0 90.5 41t36.5 97q0 41 -26 69.5t-68 28.5zM579 322q62 0 107 -42t45 -107q0 -79 -54.5 -135t-137.5 -56q-68 0 -109.5 42t-41.5 106q0 78 57 135t134 57zM577 270q-55 0 -92.5 -41.5t-37.5 -93.5q0 -43 27 -72t70 -29q54 0 91 40.5t37 96.5q0 41 -26.5 70t-68.5 29z
" />
    <glyph glyph-name="ampersand" unicode="&#x26;" horiz-adv-x="757" 
d="M508 97q-152 -114 -273 -114q-83 0 -131 49t-48 117q0 31 11 59.5t26 49.5t47 47.5t56 43.5t70 48q-62 89 -62 153q0 63 49 102t119 39q62 0 103 -34.5t41 -84.5q0 -52 -36.5 -97t-110.5 -97q45 -59 97.5 -121t53.5 -63l100 75l45 -55q-51 -43 -97 -75q48 -60 127 -139
h-98q-5 6 -39 41.5t-50 55.5zM308 339q-96 -58 -137.5 -100.5t-41.5 -89.5q0 -43 31 -71t73 -28q71 0 229 101q-39 39 -154 188zM328 435q59 43 87 72t28 60q0 23 -21.5 40t-56.5 17q-40 0 -64 -21t-24 -51q0 -38 51 -117z" />
    <glyph glyph-name="quotesingle" unicode="'" horiz-adv-x="198" 
d="M161 736l-11 -226h-50l-11 226h72z" />
    <glyph glyph-name="parenleft" unicode="(" horiz-adv-x="369" 
d="M191 -208h-76q-29 105 -29 247q0 187 48 372.5t136 338.5h79q-89 -141 -139.5 -322.5t-50.5 -377.5q0 -142 32 -258z" />
    <glyph glyph-name="parenright" unicode=")" horiz-adv-x="369" 
d="M125 750h75q29 -105 29 -250q0 -188 -48 -371.5t-136 -336.5h-79q88 139 139 322.5t51 374.5q0 151 -31 261z" />
    <glyph glyph-name="asterisk" unicode="*" horiz-adv-x="425" 
d="M211 591l-16 145h64l-14 -145l120 86l32 -54l-135 -61l135 -60l-32 -56l-120 85l14 -145h-64l16 145l-121 -85l-32 56l137 60l-137 61l32 54z" />
    <glyph glyph-name="plus" unicode="+" horiz-adv-x="606" 
d="M56 394h214v211h67v-211h213v-69h-213v-211h-67v211h-214v69z" />
    <glyph glyph-name="comma" unicode="," horiz-adv-x="277" 
d="M-18 -63l109 195l62 -31l-125 -184z" />
    <glyph glyph-name="hyphen" unicode="-" horiz-adv-x="332" 
d="M2 240l8 60h269l-8 -60h-269z" />
    <glyph glyph-name="period" unicode="." horiz-adv-x="277" 
d="M90 105q25 0 42 -17t17 -42t-17 -42.5t-42 -17.5t-42.5 18t-17.5 42q0 25 17.5 42t42.5 17z" />
    <glyph glyph-name="slash" unicode="/" horiz-adv-x="437" 
d="M333 736h75l-298 -834h-75z" />
    <glyph glyph-name="zero" unicode="0" 
d="M309 736q85 0 139 -72.5t54 -198.5q0 -102 -26 -202q-34 -135 -104 -207.5t-160 -72.5q-87 0 -138.5 70.5t-51.5 198.5q0 219 81.5 351.5t205.5 132.5zM302 669q-83 0 -145 -114.5t-62 -309.5q0 -95 33 -145t87 -50q35 0 72.5 24.5t65.5 68.5q30 47 53 138t23 194
q0 92 -34.5 143t-92.5 51z" />
    <glyph glyph-name="one" unicode="1" 
d="M194 649l26 69h150l-95 -718h-71l87 649h-97z" />
    <glyph glyph-name="two" unicode="2" 
d="M-20 0l237 263q62 69 82.5 92.5t53.5 67t43 71t10 57.5q0 49 -36.5 83.5t-91.5 34.5q-62 0 -101 -44.5t-43 -123.5h-73q6 112 66.5 173.5t158.5 61.5q83 0 138 -53.5t55 -133.5q0 -26 -4 -48.5t-19 -50t-23.5 -42.5t-37.5 -49.5t-39.5 -46.5t-50.5 -56l-168 -187h308
l-8 -69h-457z" />
    <glyph glyph-name="three" unicode="3" 
d="M238 422q74 0 123.5 37t49.5 94q0 49 -35 81t-85 32q-46 0 -80.5 -27.5t-42.5 -74.5h-72q11 78 67.5 125t132.5 47q81 0 134.5 -52t53.5 -135q0 -57 -28.5 -94t-89.5 -67q102 -59 102 -168q0 -100 -72 -168.5t-175 -68.5q-86 0 -145 54.5t-71 152.5h72q8 -52 27 -80
q18 -27 50.5 -43.5t68.5 -16.5q65 0 118.5 51.5t53.5 114.5q0 66 -47 104.5t-135 38.5l7 64q4 0 9.5 -0.5t8.5 -0.5z" />
    <glyph glyph-name="four" unicode="4" 
d="M422 736h14l-68 -514h101l-9 -69h-101l-20 -153h-69l20 153h-315zM299 222l47 322l-239 -322h192z" />
    <glyph glyph-name="five" unicode="5" 
d="M123 387l99 331h291l-9 -69h-231l-51 -175q28 2 38 2q85 0 144.5 -66.5t59.5 -164.5q0 -108 -69.5 -185t-178.5 -77q-150 0 -221 156l66 29q24 -57 66 -87.5t91 -30.5q69 0 121 54.5t52 139.5q0 73 -42.5 121t-112.5 48q-46 0 -113 -26z" />
    <glyph glyph-name="six" unicode="6" 
d="M157 510l192 226l51 -42l-193 -229q28 10 61 10q89 0 155 -67.5t66 -170.5q0 -107 -70 -181t-176 -74q-101 0 -167.5 67.5t-66.5 169.5q0 73 34.5 135t113.5 156zM253 412q-73 0 -122 -55t-49 -134q0 -75 46.5 -123t111.5 -48q71 0 123.5 53t52.5 133q0 74 -47 124
t-116 50z" />
    <glyph glyph-name="seven" unicode="7" 
d="M76 649l11 69h454l-465 -736l-57 36l400 631h-343z" />
    <glyph glyph-name="eight" unicode="8" 
d="M3 181q0 142 161 216q-83 56 -83 137t67 141.5t157 60.5q81 0 133.5 -51t52.5 -123q0 -111 -126 -174q111 -58 111 -170q0 -99 -72.5 -167.5t-182.5 -68.5q-95 0 -156.5 58t-61.5 141zM303 666q-63 0 -106 -39.5t-43 -92.5q0 -48 34 -78t87 -30q60 0 101.5 40t41.5 93
q0 45 -33 76t-82 31zM265 356q-78 0 -133.5 -50t-55.5 -124q0 -60 42 -96.5t106 -36.5q78 0 131 48.5t53 116.5q0 58 -40 100t-103 42z" />
    <glyph glyph-name="nine" unicode="9" 
d="M363 208l-192 -226l-51 42l193 229q-30 -10 -61 -10q-89 0 -155 67.5t-66 170.5q0 107 69.5 181t176.5 74q101 0 167.5 -67.5t66.5 -168.5q0 -73 -35 -136.5t-113 -155.5zM267 306q73 0 122 55t49 134q0 74 -46.5 122.5t-111.5 48.5q-71 0 -123.5 -53t-52.5 -133
q0 -74 47 -124t116 -50z" />
    <glyph glyph-name="colon" unicode=":" horiz-adv-x="277" 
d="M90 105q25 0 42 -17t17 -42t-17 -42.5t-42 -17.5t-42.5 18t-17.5 42q0 25 17.5 42t42.5 17zM150 545q25 0 42 -17.5t17 -42.5t-17 -42t-42 -17t-42.5 17t-17.5 42t17.5 42.5t42.5 17.5z" />
    <glyph glyph-name="semicolon" unicode=";" horiz-adv-x="277" 
d="M-18 -63l109 195l62 -31l-125 -184zM149 545q25 0 42.5 -17.5t17.5 -42.5t-17.5 -42t-42.5 -17t-42 17t-17 42t17 42.5t42 17.5z" />
    <glyph glyph-name="less" unicode="&#x3c;" horiz-adv-x="606" 
d="M146 358l409 -188v-72l-504 229v64l504 230v-72z" />
    <glyph glyph-name="equal" unicode="=" horiz-adv-x="606" 
d="M56 501h494v-69h-494v69zM56 286h494v-69h-494v69z" />
    <glyph glyph-name="greater" unicode="&#x3e;" horiz-adv-x="606" 
d="M51 98v72l410 188l-410 191v72l504 -230v-64z" />
    <glyph glyph-name="question" unicode="?" horiz-adv-x="591" 
d="M246 105q25 0 42.5 -17t17.5 -42t-17.5 -42.5t-42.5 -17.5t-42 17.5t-17 42.5t17 42t42 17zM395 341h67q-7 -82 -56.5 -126.5t-131.5 -44.5q-70 0 -113 38t-43 93q0 51 34.5 86t102.5 62q20 8 51.5 20t46 17.5t35.5 15t29.5 17t19 19t14 25t3.5 30.5q0 43 -33 67t-92 24
q-139 0 -157 -147h-66q11 103 72 158.5t158 55.5q80 0 133 -43t53 -112q0 -56 -33 -99t-91 -63q-130 -46 -163 -66q-48 -31 -49 -72q0 -27 25 -45t64 -18q101 0 120 108z" />
    <glyph glyph-name="at" unicode="@" horiz-adv-x="867" 
d="M431 560q47 0 75.5 -17.5t52.5 -54.5l13 67h52l-56 -319q-3 -12 -3 -20q0 -24 26 -24q19 0 47 16t56.5 43.5t48 74.5t19.5 101q0 121 -90.5 201.5t-225.5 80.5q-148 0 -244.5 -98t-96.5 -238q0 -147 99.5 -245t249.5 -98q78 0 135 29t116 88h52q-65 -81 -133.5 -120.5
t-168.5 -39.5q-164 0 -276 109t-112 268q0 165 109.5 276.5t272.5 111.5q144 0 247.5 -92t103.5 -222q0 -126 -82 -207q-38 -37 -87 -59.5t-83 -22.5q-56 0 -57 54q-39 -49 -106 -49q-70 0 -115.5 48.5t-45.5 128.5q0 94 58 161.5t149 67.5zM409 209q56 0 91.5 53.5
t35.5 134.5q0 47 -26 79t-72 32q-62 0 -104 -50t-42 -118q0 -59 32.5 -95t84.5 -36z" />
    <glyph glyph-name="A" unicode="A" horiz-adv-x="740" 
d="M399 718h17l241 -718h-74l-78 235h-304l-135 -235h-80zM482 304l-89 264l-153 -264h242z" />
    <glyph glyph-name="B" unicode="B" horiz-adv-x="574" 
d="M248 0h-224l96 718h112q85 0 132.5 -8.5t84.5 -39.5q54 -45 54 -120q0 -58 -31 -103.5t-85 -65.5q63 -20 99.5 -66t36.5 -112q0 -94 -60 -148q-37 -33 -86 -44t-129 -11zM182 650l-32 -239q15 -1 46 -1q128 0 175 30q59 38 59 108q0 62 -46 82.5t-150 20.5q-36 0 -52 -1z
M105 69h118q118 0 172.5 28.5t54.5 105.5q0 74 -61 107t-189 33q-9 0 -29.5 -1t-29.5 -1z" />
    <glyph glyph-name="C" unicode="C" horiz-adv-x="813" 
d="M655 134l41 -57q-74 -49 -137 -71.5t-153 -22.5q-168 0 -267.5 96t-99.5 245q0 174 125 293t309 119q88 0 157.5 -28t139.5 -89l-44 -60q-113 107 -260 107q-146 0 -250 -99.5t-104 -240.5q0 -125 81.5 -200.5t213.5 -75.5q134 0 248 84z" />
    <glyph glyph-name="D" unicode="D" horiz-adv-x="744" 
d="M23 0l95 718h171q127 0 208 -39q82 -40 128.5 -120t46.5 -180q0 -89 -36.5 -171t-97.5 -131q-53 -44 -118 -60.5t-154 -16.5h-243zM268 649h-88l-77 -580h81q69 0 106 1.5t82 9.5t78 25q67 34 108 107.5t41 164.5q0 79 -35 141t-99 96q-43 22 -87.5 28.5t-109.5 6.5z" />
    <glyph glyph-name="E" unicode="E" horiz-adv-x="536" 
d="M120 718h396l-10 -69h-323l-32 -236h323l-9 -69h-323l-37 -275h323l-8 -69h-396z" />
    <glyph glyph-name="F" unicode="F" horiz-adv-x="485" 
d="M120 718h346l-8 -69h-276l-32 -236h276l-9 -69h-276l-47 -344h-71z" />
    <glyph glyph-name="G" unicode="G" horiz-adv-x="872" 
d="M447 351h350q-11 -165 -117.5 -266.5t-269.5 -101.5q-166 0 -268.5 100t-102.5 251q0 167 119 284.5t289 117.5q200 0 333 -172l-58 -43q-55 72 -127 110t-150 38q-132 0 -232.5 -98t-100.5 -235q0 -120 84 -203t206 -83q110 0 195 61t113 171h-263v69z" />
    <glyph glyph-name="H" unicode="H" horiz-adv-x="683" 
d="M23 0l96 718h71l-39 -291h368l39 291h70l-94 -718h-70l47 358h-370l-46 -358h-72z" />
    <glyph glyph-name="I" unicode="I" horiz-adv-x="226" 
d="M19 0l97 718h72l-96 -718h-73z" />
    <glyph glyph-name="J" unicode="J" horiz-adv-x="482" 
d="M267 218l65 500h71l-65 -495q-10 -75 -21 -117.5t-34 -70.5q-44 -53 -122 -53q-93 0 -173 86l55 40q61 -59 119 -59q50 0 72 41.5t33 127.5z" />
    <glyph glyph-name="K" unicode="K" horiz-adv-x="591" 
d="M23 0l96 718h71l-39 -291l336 291h104l-390 -336l337 -382h-92l-305 347l-47 -347h-71z" />
    <glyph glyph-name="L" unicode="L" horiz-adv-x="463" 
d="M27 0l95 718h72l-86 -649h310l-8 -69h-383z" />
    <glyph glyph-name="M" unicode="M" horiz-adv-x="919" 
d="M791 718h11v-718h-67v495l-312 -495h-18l-186 513l-147 -513h-73l207 718h12l210 -583z" />
    <glyph glyph-name="N" unicode="N" horiz-adv-x="740" 
d="M542 161l75 557h71l-98 -718h-15l-404 557l-76 -557h-71l97 718h16z" />
    <glyph glyph-name="O" unicode="O" horiz-adv-x="869" 
d="M466 736q143 0 241 -93.5t98 -242.5q0 -177 -122 -297.5t-306 -120.5q-157 0 -250 93t-93 243q0 178 122.5 298t309.5 120zM465 669q-158 0 -258 -102.5t-100 -246.5q0 -121 72.5 -196t196.5 -75q151 0 253.5 102.5t102.5 252.5q0 118 -76.5 191.5t-190.5 73.5z" />
    <glyph glyph-name="P" unicode="P" horiz-adv-x="592" 
d="M32 0l96 718h216q106 0 157 -42q56 -47 56 -127q0 -52 -24 -98t-65 -73q-35 -23 -79 -30t-112 -7h-127l-46 -341h-72zM341 649h-149l-33 -239h124q106 0 148 30q53 39 53 108q0 55 -35 78t-108 23z" />
    <glyph glyph-name="Q" unicode="Q" horiz-adv-x="871" 
d="M714 -29l-83 88q-108 -77 -253 -77q-157 0 -250 93t-93 243q0 178 122.5 298t309.5 120q143 0 241 -93.5t98 -242.5q0 -176 -124 -298l124 -131h-92zM554 239l79 -85q100 103 100 250q0 118 -76.5 191.5t-190.5 73.5q-158 0 -258 -102.5t-100 -246.5q0 -121 72.5 -196
t196.5 -75q112 0 205 62l-121 128h93z" />
    <glyph glyph-name="R" unicode="R" horiz-adv-x="607" 
d="M38 0l98 718h197q99 0 148 -35q66 -47 66 -135q0 -44 -19 -86t-51 -69q-63 -53 -183 -53l217 -340h-81l-216 341h-57l-47 -341h-72zM338 649h-139l-33 -239h83q15 0 48.5 1.5t40.5 1.5q59 2 97.5 40t38.5 95q0 53 -33.5 77t-102.5 24z" />
    <glyph glyph-name="S" unicode="S" horiz-adv-x="498" 
d="M7 155l67 22q15 -64 49.5 -95.5t81.5 -31.5q52 0 90.5 38t38.5 96q0 16 -3 30.5t-6.5 26t-14 27t-16.5 24t-24 27.5t-27 27.5t-35 33.5t-38 37q-27 26 -44 67.5t-17 82.5q0 75 49 122t119 47q61 0 107 -38t68 -112l-67 -18q-14 45 -45 73t-68 28q-41 0 -65.5 -29
t-24.5 -73q0 -29 14.5 -61t36.5 -53q94 -86 134 -143t40 -123q0 -82 -61 -143t-147 -61q-70 0 -120 44.5t-72 127.5z" />
    <glyph glyph-name="T" unicode="T" horiz-adv-x="426" 
d="M27 649l9 69h429l-9 -69h-183l-86 -649h-72l86 649h-174z" />
    <glyph glyph-name="U" unicode="U" horiz-adv-x="655" 
d="M61 318l52 400h71l-54 -411q-10 -78 -10 -114q0 -71 38 -107t109 -36q90 0 141 53q35 35 52 96.5t31 171.5l44 347h71l-48 -362q-1 -10 -4.5 -38.5t-6 -46.5t-8.5 -45t-13 -51q-30 -99 -92.5 -145.5t-165.5 -46.5q-105 0 -163 52.5t-58 145.5q0 22 14 137z" />
    <glyph glyph-name="V" unicode="V" horiz-adv-x="702" 
d="M286 0l-226 718h72l179 -569l333 569h79l-420 -718h-17z" />
    <glyph glyph-name="W" unicode="W" horiz-adv-x="960" 
d="M195 0l-134 718h70l99 -533l278 533h14l126 -533l253 533h76l-343 -718h-13l-127 541l-285 -541h-14z" />
    <glyph glyph-name="X" unicode="X" horiz-adv-x="609" 
d="M263 377l-156 341h76l127 -279l211 279h84l-263 -348l169 -370h-75l-141 306l-232 -306h-85z" />
    <glyph glyph-name="Y" unicode="Y" horiz-adv-x="592" 
d="M228 322l-187 396h75l154 -326l259 326h87l-318 -400l-44 -318h-70z" />
    <glyph glyph-name="Z" unicode="Z" horiz-adv-x="480" 
d="M97 649l10 69h369l-353 -649h269l-9 -69h-376l354 649h-264z" />
    <glyph glyph-name="bracketleft" unicode="[" horiz-adv-x="351" 
d="M50 -194l131 930h164l-10 -69h-95l-112 -795h95l-9 -66h-164z" />
    <glyph glyph-name="backslash" unicode="\" horiz-adv-x="605" 
d="M32 736h75l465 -834h-74z" />
    <glyph glyph-name="bracketright" unicode="]" horiz-adv-x="351" 
d="M248 736l-131 -930h-164l10 69h95l112 795h-96l10 66h164z" />
    <glyph glyph-name="asciicircum" unicode="^" horiz-adv-x="672" 
d="M59 178l249 540h57l249 -540h-64l-215 465l-213 -465h-63z" />
    <glyph glyph-name="underscore" unicode="_" horiz-adv-x="500" 
d="M-6 -124v48h512v-48h-512z" />
    <glyph glyph-name="grave" unicode="`" horiz-adv-x="378" 
d="M105 781h105l85 -151h-67z" />
    <glyph glyph-name="a" unicode="a" horiz-adv-x="683" 
d="M535 430l12 101h71l-71 -531h-69l10 80q-92 -94 -211 -94q-109 0 -178.5 70t-69.5 180q0 129 91.5 219t212.5 90q132 0 202 -115zM285 49q104 0 170.5 70.5t66.5 175.5q0 84 -53 135.5t-135 51.5q-97 0 -167 -70.5t-70 -174.5q0 -86 52.5 -137t135.5 -51z" />
    <glyph glyph-name="b" unicode="b" horiz-adv-x="682" 
d="M112 101l-12 -101h-71l98 736h69l-37 -284q91 93 211 93q109 0 178.5 -69.5t69.5 -179.5q0 -130 -90.5 -219.5t-212.5 -89.5q-134 0 -203 114zM363 482q-103 0 -170.5 -70.5t-67.5 -175.5q0 -84 53 -135t135 -51q97 0 167 69.5t70 174.5q0 86 -52 137t-135 51z" />
    <glyph glyph-name="c" unicode="c" horiz-adv-x="647" 
d="M498 137l56 -40q-101 -111 -258 -111q-125 0 -196 69t-71 183q0 129 93 218t227 89q79 0 141 -33.5t95 -94.5l-57 -33q-59 94 -180 94q-109 0 -180 -68t-71 -168q0 -87 53 -140t143 -53q60 0 116 24.5t89 63.5z" />
    <glyph glyph-name="d" unicode="d" horiz-adv-x="685" 
d="M479 0l10 80q-92 -94 -211 -94q-109 0 -178.5 70t-69.5 180q0 129 91.5 219t212.5 90q132 0 202 -115l40 306h70l-98 -736h-69zM286 49q104 0 170.5 70.5t66.5 175.5q0 84 -53 135.5t-135 51.5q-97 0 -167 -70.5t-70 -174.5q0 -86 52.5 -137t135.5 -51z" />
    <glyph glyph-name="e" unicode="e" horiz-adv-x="650" 
d="M464 136l51 -41q-40 -50 -102 -79.5t-134 -29.5q-116 0 -183 72.5t-67 179.5q0 124 89.5 216t219.5 92q105 0 170.5 -70.5t65.5 -175.5q0 -20 -4 -48h-473v-14q0 -83 50.5 -136t133.5 -53q118 0 183 87zM108 312h400q-3 76 -51.5 121.5t-122.5 45.5q-78 0 -139 -44
t-87 -123z" />
    <glyph glyph-name="f" unicode="f" horiz-adv-x="314" 
d="M114 531l6 47q7 52 16.5 85.5t36.5 60.5t70 27q38 0 83 -33l-9 -64q-37 34 -66 34t-41.5 -25.5t-19.5 -74.5l-8 -57h109l-7 -60h-109l-66 -471h-70l67 471h-67l8 60h67z" />
    <glyph glyph-name="g" unicode="g" horiz-adv-x="673" 
d="M531 430l13 101h67l-61 -449q-7 -55 -13.5 -85t-24 -67.5t-46.5 -64.5q-76 -73 -206 -73q-181 0 -249 143l61 21q55 -101 187 -101q81 0 138.5 38.5t67.5 92.5q11 57 16 87l3 21q-87 -94 -211 -94q-112 0 -178 68.5t-66 173.5q0 124 92 213.5t207 89.5q127 0 203 -115z
M341 482q-102 0 -173 -69t-71 -174q0 -80 50 -128t133 -48q101 0 168.5 66.5t67.5 168.5q0 83 -51.5 133.5t-123.5 50.5z" />
    <glyph glyph-name="h" unicode="h" horiz-adv-x="610" 
d="M19 0l101 736h68l-39 -285q83 95 188 95q78 0 130 -49.5t52 -134.5q0 -30 -11 -118l-33 -244h-67l33 244q10 70 10 115q0 57 -33.5 90.5t-89.5 33.5q-50 0 -94 -24t-69 -66q-31 -51 -46 -163l-32 -230h-68z" />
    <glyph glyph-name="i" unicode="i" horiz-adv-x="200" 
d="M134 750q22 0 38.5 -16t16.5 -39t-16 -39t-39 -16q-22 0 -38.5 16t-16.5 39t16 39t39 16zM7 0l73 531h65l-71 -531h-67z" />
    <glyph glyph-name="j" unicode="j" horiz-adv-x="203" 
d="M2 -55l81 586h67l-78 -565q-12 -89 -36 -132t-74 -43q-22 0 -58 15l8 58q16 -10 35 -10q23 0 35.5 21.5t19.5 69.5zM137 750q23 0 39 -16t16 -39t-16 -39t-39 -16t-39 16t-16 39t16 39t39 16z" />
    <glyph glyph-name="k" unicode="k" horiz-adv-x="502" 
d="M19 0l104 736h67l-57 -401l256 196h106l-308 -237l272 -294h-91l-245 264l-36 -264h-68z" />
    <glyph glyph-name="l" unicode="l" horiz-adv-x="200" 
d="M7 0l103 736h67l-102 -736h-68z" />
    <glyph glyph-name="m" unicode="m" horiz-adv-x="938" 
d="M159 531l-10 -75q32 43 79.5 66t95.5 23q56 0 98.5 -30.5t60.5 -88.5q36 56 88.5 87.5t108.5 31.5q72 0 121 -46.5t49 -125.5q0 -17 -8 -81l-39 -292h-67l36 255q10 75 10 113q0 50 -29 80t-80 30q-66 0 -113 -43q-36 -32 -53 -74t-26 -106l-36 -255h-68l40 292
q7 54 7 75q0 53 -30.5 84t-78.5 31q-64 0 -117 -46q-59 -53 -78 -186l-35 -250h-68l76 531h66z" />
    <glyph glyph-name="n" unicode="n" horiz-adv-x="610" 
d="M159 531l-10 -81q81 95 188 95q80 0 131 -49.5t51 -133.5q0 -44 -11 -118l-33 -244h-67l33 244q10 82 10 114q0 56 -33 90t-89 34q-50 0 -94 -23.5t-70 -64.5q-29 -45 -46 -164l-32 -230h-67l74 531h65z" />
    <glyph glyph-name="o" unicode="o" horiz-adv-x="655" 
d="M332 545q105 0 175 -71t70 -183q0 -128 -85.5 -216t-219.5 -88q-109 0 -177 70t-68 178q0 130 88.5 220t216.5 90zM330 482q-99 0 -167 -69t-68 -174q0 -83 51.5 -136t134.5 -53q101 0 164.5 70.5t63.5 171.5q0 84 -51 137t-128 53z" />
    <glyph glyph-name="p" unicode="p" horiz-adv-x="682" 
d="M169 531l-10 -79q91 93 211 93q109 0 178.5 -69.5t69.5 -179.5q0 -130 -91 -219.5t-213 -89.5q-134 0 -202 114l-38 -295h-71l97 725h69zM362 482q-103 0 -170 -70.5t-67 -175.5q0 -84 53 -135t135 -51q97 0 167 69.5t70 174.5q0 86 -52.5 137t-135.5 51z" />
    <glyph glyph-name="q" unicode="q" horiz-adv-x="682" 
d="M535 430l12 101h71l-97 -725h-69l36 274q-92 -94 -211 -94q-109 0 -178.5 70t-69.5 180q0 129 91.5 219t212.5 90q132 0 202 -115zM285 49q104 0 170.5 70.5t66.5 175.5q0 84 -53 135.5t-135 51.5q-97 0 -167 -70.5t-70 -174.5q0 -86 52.5 -137t135.5 -51z" />
    <glyph glyph-name="r" unicode="r" horiz-adv-x="301" 
d="M133 531l-9 -66q58 80 145 80q28 0 61 -14l-33 -62q-23 9 -42 9q-56 0 -98 -50q-46 -55 -66 -203l-31 -225h-67l72 531h68z" />
    <glyph glyph-name="s" unicode="s" horiz-adv-x="388" 
d="M-17 74l41 48q60 -72 128 -72q38 0 68 27t30 66q0 47 -42 77q-12 8 -34 23.5t-31 22t-25.5 19t-23 19l-17.5 17.5t-15.5 18.5t-10 18.5t-7 22t-1.5 23q0 60 46 101t112 41q46 0 77 -18.5t61 -54.5l-37 -56q-47 66 -106 66q-36 0 -60.5 -24t-24.5 -52q0 -39 46 -69
q42 -27 55.5 -36.5t41 -32t37 -37.5t18.5 -39t9 -51q0 -68 -48 -111t-121 -43q-98 0 -166 87z" />
    <glyph glyph-name="t" unicode="t" horiz-adv-x="339" 
d="M149 531l28 199h67l-26 -199h105l-7 -60h-106l-64 -471h-69l65 471h-92l8 60h91z" />
    <glyph glyph-name="u" unicode="u" horiz-adv-x="608" 
d="M65 329l27 202h68l-30 -222q-13 -97 -13 -121q0 -62 41.5 -100t106.5 -38q40 0 75 16.5t57 45.5q6 8 11 17t8.5 16.5t7 19t5.5 18t4 21t3 20t3 21.5t3 21l38 265h66l-27 -201q-14 -102 -28 -160.5t-39 -93.5q-30 -42 -80 -65.5t-110 -23.5q-93 0 -151.5 55.5t-58.5 142.5
q0 44 13 144z" />
    <glyph glyph-name="v" unicode="v" 
d="M210 0l-183 531h70l134 -389l224 389h74l-306 -531h-13z" />
    <glyph glyph-name="w" unicode="w" horiz-adv-x="831" 
d="M189 0l-155 531h68l109 -375l200 375h12l121 -378l195 378h74l-275 -531h-14l-123 375l-199 -375h-13z" />
    <glyph glyph-name="x" unicode="x" horiz-adv-x="480" 
d="M181 264l-164 267h77l130 -207l152 207h82l-197 -267l161 -264h-78l-126 204l-150 -204h-82z" />
    <glyph glyph-name="y" unicode="y" horiz-adv-x="536" 
d="M187 65l-164 466h71l137 -392l228 392h75l-420 -725h-77z" />
    <glyph glyph-name="z" unicode="z" horiz-adv-x="425" 
d="M37 471l8 60h365l-317 -471h288l-8 -60h-401l319 471h-254z" />
    <glyph glyph-name="braceleft" unicode="{" horiz-adv-x="351" 
d="M103 115q0 93 -84 94l11 80q30 1 51.5 13t34 26.5t23 52t14.5 61.5t12 84q1 9 2 14q14 100 55.5 139t123.5 39h27l-10 -76h-16q-51 0 -70 -19t-28 -82q-20 -139 -33 -177q-25 -71 -93 -107q-8 -4 -17 -8q41 -19 59.5 -51.5t18.5 -84.5q0 -40 -10.5 -109t-10.5 -94
q0 -32 17.5 -43t56.5 -11h15l-11 -76h-27q-68 0 -100.5 26t-32.5 91q0 35 11 109t11 109z" />
    <glyph glyph-name="bar" unicode="|" horiz-adv-x="672" 
d="M301 -194v930h70v-930h-70z" />
    <glyph glyph-name="braceright" unicode="}" horiz-adv-x="351" 
d="M189 383q0 -93 83 -94l-11 -80q-25 -1 -44 -7.5t-32 -22.5t-22 -33t-16 -48t-11 -56t-10 -70q-1 -10 -2 -15q-14 -99 -56 -138t-123 -39h-27l11 76h15q52 0 70.5 19t27.5 82l3 21q18 130 37 174q28 64 103 97q-41 19 -59.5 51.5t-18.5 84.5q0 40 10.5 109t10.5 94
q0 32 -17.5 43t-56.5 11h-15l11 76h27q68 0 101 -26t33 -91q0 -35 -11 -109t-11 -109z" />
    <glyph glyph-name="asciitilde" unicode="~" horiz-adv-x="606" 
d="M55 310v78q29 17 43.5 24.5t37.5 15t43 7.5q47 0 132 -40.5t116 -40.5q7 0 15 1.5t14.5 3t15.5 5.5t14 6.5t16 8.5t15.5 9t17 10.5t16.5 10.5v-79q-81 -46 -123 -46q-47 0 -131.5 38.5t-113.5 38.5q-42 0 -128 -51z" />
    <glyph glyph-name="uni00A0" unicode="&#xa0;" horiz-adv-x="277" 
 />
    <glyph glyph-name="exclamdown" unicode="&#xa1;" horiz-adv-x="295" 
d="M171 349l-75 -557h-67l74 557h68zM151 423q-25 0 -42.5 17.5t-17.5 42.5q0 24 17.5 41.5t42.5 17.5t42 -17t17 -42t-17 -42.5t-42 -17.5z" />
    <glyph glyph-name="cent" unicode="&#xa2;" 
d="M414 529l86 131l50 -33l-82 -127q23 -15 45 -36l-42 -54q-17 16 -40 33l-244 -375q39 -15 79 -15q98 0 175 68l38 -53q-94 -82 -219 -82q-58 0 -110 25l-97 -150l-53 34l100 151q-77 81 -77 185q0 129 91 221.5t209 92.5q45 0 91 -16zM137 104l239 367q-33 11 -51 11
q-93 0 -163.5 -74t-70.5 -174q0 -78 46 -130z" />
    <glyph glyph-name="sterling" unicode="&#xa3;" 
d="M260 413h156l-10 -69h-138q2 -34 2 -53q0 -92 -27 -165l22 -16.5t20.5 -15.5t17.5 -12.5t17 -11t14 -7.5t14.5 -5.5t13.5 -1.5q25 0 44 30.5t26 81.5h71q-6 -72 -44 -129t-99 -57q-63 0 -150 78q-55 -78 -124 -78q-41 0 -67 26t-26 67q0 45 33 79t80 34q39 0 76 -20
q15 51 15 108q0 35 -3 68h-141l10 69h123q-15 92 -15 127q0 93 55.5 144.5t138.5 51.5q73 0 116 -45.5t43 -126.5v-15h-70q-2 60 -22.5 90t-70.5 30t-83.5 -33.5t-33.5 -87.5q0 -49 16 -135zM155 103q-26 18 -49 18q-20 0 -32.5 -11t-12.5 -28q0 -14 8.5 -23.5t21.5 -9.5
q33 0 64 54z" />
    <glyph glyph-name="currency" unicode="&#xa4;" horiz-adv-x="614" 
d="M527 174q-7 -7 -18.5 -19t-17.5 -18q-23 22 -67 66q-51 -40 -117 -40q-69 0 -118 40l-66 -66q-12 12 -36 37q11 11 33.5 32.5t33.5 31.5q-39 54 -39 116q0 69 39 116q-11 11 -33.5 32.5t-33.5 32.5q24 25 36 37l66 -66q55 40 118 40q69 0 116 -40q22 22 68 66
q6 -6 17.5 -18t18.5 -19q-8 -7 -22 -20.5t-25 -24t-21 -20.5q40 -50 40 -116q0 -62 -40 -116q46 -44 68 -64zM448 355q0 60 -43 100t-97 40q-60 0 -101 -41.5t-41 -98.5t41.5 -99.5t99.5 -42.5t99.5 42t41.5 100z" />
    <glyph glyph-name="yen" unicode="&#xa5;" 
d="M48 344h179l-156 374h75l123 -294l201 294h82l-252 -374h179l-9 -56h-179l-10 -75h179l-9 -56h-179l-21 -157h-71l23 157h-180l7 56h180l10 75h-179z" />
    <glyph glyph-name="brokenbar" unicode="&#xa6;" horiz-adv-x="672" 
d="M371 116v-310h-70v310h70zM371 736v-310h-70v310h70z" />
    <glyph glyph-name="section" unicode="&#xa7;" horiz-adv-x="615" 
d="M32 -68h69q24 -76 111 -76q53 0 89.5 30t36.5 74q0 56 -80 111q-109 75 -148 116t-39 100q0 55 40 98t111 60q-73 56 -73 132q0 71 54 121.5t138 50.5q74 0 120.5 -43.5t49.5 -121.5h-68q-12 98 -101 98q-54 0 -89.5 -31.5t-35.5 -71.5q0 -26 20.5 -53.5t51.5 -47.5
q114 -74 146 -105q50 -49 50 -102q0 -55 -43.5 -100.5t-121.5 -60.5q44 -35 67.5 -69t23.5 -80q0 -69 -57 -118.5t-145 -49.5q-152 0 -177 139zM270 410q-60 -9 -95.5 -41t-35.5 -74q0 -13 3 -24.5t11 -23t14 -19t21.5 -20t23 -18t29 -20.5t29.5 -21q64 6 105.5 41t41.5 75
q0 17 -6.5 31.5t-22.5 28.5t-29.5 24t-42 29t-46.5 32z" />
    <glyph glyph-name="dieresis" unicode="&#xa8;" horiz-adv-x="369" 
d="M136 741q49 0 49 -57q0 -19 -19.5 -37.5t-44.5 -18.5q-49 0 -49 56q0 19 19.5 38t44.5 19zM336 741q48 0 48 -57q0 -18 -19.5 -37t-44.5 -19q-49 0 -49 56q0 18 20 37.5t45 19.5z" />
    <glyph glyph-name="copyright" unicode="&#xa9;" horiz-adv-x="747" 
d="M489 325h63q-9 -76 -57 -121t-124 -45q-84 0 -136.5 56.5t-52.5 162.5q0 97 54.5 156t139.5 59q75 0 122 -37.5t54 -105.5h-63q-20 83 -111 83q-60 0 -94 -43t-34 -117q0 -78 33 -120t93 -42q44 0 74.5 29t38.5 85zM738 373q0 -151 -106.5 -256.5t-257.5 -105.5
q-150 0 -257.5 106t-107.5 256q0 151 107 257t258 106t257.5 -105.5t106.5 -257.5zM687 373q0 131 -91.5 223t-221.5 92t-222.5 -92t-92.5 -223q0 -130 92.5 -222t222.5 -92q129 0 221 92t92 222z" />
    <glyph glyph-name="ordfeminine" unicode="&#xaa;" horiz-adv-x="369" 
d="M355 728l-48 -332h-57l6 38q-48 -46 -97 -46q-54 0 -89 43t-35 113q0 82 45.5 137t105.5 55q31 0 53 -14t51 -45l7 51h58zM173 440q46 0 76.5 39.5t30.5 100.5q0 48 -24 76t-60 28q-43 0 -74.5 -39.5t-31.5 -99.5q0 -49 23 -77t60 -28z" />
    <glyph glyph-name="guillemotleft" unicode="&#xab;" horiz-adv-x="425" 
d="M0 272l143 259h74l-147 -268l69 -263h-66zM225 272l143 259h74l-148 -268l70 -263h-67z" />
    <glyph glyph-name="logicalnot" unicode="&#xac;" horiz-adv-x="606" 
d="M56 501h494v-283h-67v214h-427v69z" />
    <glyph glyph-name="uni00AD" unicode="&#xad;" horiz-adv-x="332" 
d="M2 240l8 60h269l-8 -60h-269z" />
    <glyph glyph-name="registered" unicode="&#xae;" horiz-adv-x="747" 
d="M222 165v419h175q56 0 76 -7q34 -11 54 -40t20 -67q0 -27 -8 -46.5t-17.5 -28.5t-28.5 -21q28 -14 38 -33.5t10 -61.5v-47q0 -11 1.5 -20.5t4.5 -17t5 -12t6 -10t5 -7.5h-74q-8 30 -10 62l-3 51q-2 35 -15.5 48.5t-50.5 13.5h-121v-175h-67zM395 524h-106v-124h118
q72 0 72 62q0 39 -21.5 50.5t-62.5 11.5zM738 372q0 -152 -107.5 -257.5t-256.5 -105.5q-151 0 -258 105.5t-107 257.5q0 149 106 256.5t259 107.5q151 0 257.5 -107.5t106.5 -256.5zM687 372q0 129 -91.5 222.5t-221.5 93.5q-131 0 -223 -93t-92 -223q0 -132 93 -223.5
t222 -91.5q128 0 220.5 92t92.5 223z" />
    <glyph glyph-name="macron" unicode="&#xaf;" horiz-adv-x="485" 
d="M114 663l8 60h337l-8 -60h-337z" />
    <glyph glyph-name="degree" unicode="&#xb0;" horiz-adv-x="400" 
d="M390 569q0 -73 -50 -121t-119 -48q-70 0 -119.5 49t-49.5 115q0 78 50.5 125t118.5 47q69 0 119 -48t50 -119zM331 567q0 49 -31.5 83t-79.5 34q-45 0 -77 -34t-32 -85q0 -44 32.5 -78.5t74.5 -34.5q49 0 81 34t32 81z" />
    <glyph glyph-name="plusminus" unicode="&#xb1;" horiz-adv-x="606" 
d="M56 80h494v-69h-494v69zM56 447h214v211h67v-211h213v-69h-213v-211h-67v211h-214v69z" />
    <glyph glyph-name="twosuperior" unicode="&#xb2;" horiz-adv-x="332" 
d="M8 359l152 141q44 41 61.5 58t33 39.5t15.5 40.5q0 21 -19.5 35.5t-49.5 14.5q-77 0 -80 -82h-55q4 63 40.5 96.5t98.5 33.5q52 0 86 -28t34 -71q0 -26 -15 -52t-31.5 -43t-57.5 -55l-87 -80h172l-7 -48h-291z" />
    <glyph glyph-name="threesuperior" unicode="&#xb3;" horiz-adv-x="332" 
d="M155 581h15q41 0 69 16.5t28 41.5q0 21 -19 35t-46 14q-59 0 -68 -51h-55q7 48 41.5 73.5t84.5 25.5q51 0 84 -28t33 -71q0 -52 -60 -81q50 -35 50 -82q0 -52 -44 -88.5t-108 -36.5q-55 0 -91 30t-43 87h54q11 -69 81 -69q36 0 66 23.5t30 51.5q0 31 -27.5 48t-80.5 16z
" />
    <glyph glyph-name="acute" unicode="&#xb4;" horiz-adv-x="375" 
d="M156 630l128 151h105l-166 -151h-67z" />
    <glyph glyph-name="mu" unicode="&#xb5;" horiz-adv-x="608" 
d="M394 0l8 58q-67 -70 -157 -70q-92 0 -139 68l-34 -250h-68l100 725h68l-39 -280q-6 -42 -6 -61q0 -60 37 -94t93 -34q52 0 95.5 32t60.5 82q8 23 16 83l38 272h69l-73 -531h-69z" />
    <glyph glyph-name="paragraph" unicode="&#xb6;" horiz-adv-x="564" 
d="M294 -113h-58v458q-89 -2 -139.5 52t-50.5 143q0 92 52 145.5t151 53.5h250v-37h-41v-815h-58v815h-106v-815z" />
    <glyph glyph-name="periodcentered" unicode="&#xb7;" horiz-adv-x="277" 
d="M124 419q24 0 41.5 -18t17.5 -42q0 -25 -17 -42t-42 -17t-42.5 17t-17.5 42q0 24 17.5 42t42.5 18z" />
    <glyph glyph-name="cedilla" unicode="&#xb8;" horiz-adv-x="324" 
d="M60 -99l27 99h43l-17 -58q14 2 19 2q49 0 49 -52q0 -26 -33 -52t-90 -26q-42 0 -79 15l15 34q28 -10 58 -10q34 0 52 9.5t18 22.5q0 21 -28 21q-12 0 -34 -5z" />
    <glyph glyph-name="onesuperior" unicode="&#xb9;" horiz-adv-x="332" 
d="M123 679l21 48h100l-59 -369h-53l51 321h-60z" />
    <glyph glyph-name="ordmasculine" unicode="&#xba;" horiz-adv-x="369" 
d="M205 736q60 0 100 -44.5t40 -114.5q0 -80 -48.5 -134.5t-123.5 -54.5q-62 0 -100.5 44t-38.5 112q0 82 49.5 137t121.5 55zM203 684q-48 0 -81 -38.5t-33 -99.5q0 -48 24.5 -77t64.5 -29q49 0 80.5 39.5t31.5 98.5q0 48 -25 77t-62 29z" />
    <glyph glyph-name="guillemotright" unicode="&#xbb;" horiz-adv-x="425" 
d="M403 259l-143 -259h-74l147 269l-69 262h66zM178 259l-143 -259h-74l148 269l-70 262h67z" />
    <glyph glyph-name="onequarter" unicode="&#xbc;" horiz-adv-x="831" 
d="M148 679h-60l21 48h100l-59 -369h-53zM621 736l-456 -754h-54l455 754h55zM625 76h-194l297 314l-42 -266h59l-8 -48h-59l-12 -76h-52zM540 124h93l23 121z" />
    <glyph glyph-name="onehalf" unicode="&#xbd;" horiz-adv-x="831" 
d="M88 679l21 48h100l-59 -369h-53l51 321h-60zM147 -18h-54l455 754h55zM433 0l152 142q38 35 49 45.5t31 32t25.5 34.5t5.5 26q0 21 -20 36t-50 15q-37 0 -58 -21t-22 -62h-55q4 63 41 97t99 34q52 0 86 -28.5t34 -71.5q0 -24 -14.5 -49t-26.5 -38t-52 -51q-1 -2 -2 -3
t-2.5 -2t-2.5 -2l-2.5 -2.5l-2.5 -2.5l-86 -81h172l-7 -48h-292z" />
    <glyph glyph-name="threequarters" unicode="&#xbe;" horiz-adv-x="831" 
d="M146 581h15q41 0 69 16.5t28 41.5q0 21 -19 35t-46 14q-59 0 -68 -51h-55q7 48 41.5 73.5t84.5 25.5q51 0 84 -28t33 -71q0 -52 -60 -81q50 -35 50 -82q0 -52 -44 -88.5t-108 -36.5q-55 0 -91 30t-43 87h54q11 -69 81 -69q36 0 66 23.5t30 51.5q0 31 -27.5 48t-80.5 16z
M679 736l-456 -754h-54l455 754h55zM666 76h-194l296 314l-42 -266h59l-7 -48h-59l-12 -76h-53zM580 124h94l22 121z" />
    <glyph glyph-name="questiondown" unicode="&#xbf;" horiz-adv-x="591" 
d="M316 437q-25 0 -42 17t-17 42t17 42.5t42 17.5t42.5 -17.5t17.5 -42.5t-17.5 -42t-42.5 -17zM167 202h-66q7 83 56.5 127t131.5 44q70 0 112 -37.5t42 -93.5q0 -51 -34 -86.5t-102 -62.5q-17 -7 -45.5 -17.5t-41 -15.5t-33 -14t-29 -14.5t-20.5 -15t-17 -19t-8.5 -22
t-3.5 -27.5q0 -43 33 -66t92 -23q138 0 156 146h67q-11 -103 -72.5 -158t-158.5 -55q-80 0 -132.5 42.5t-52.5 111.5q0 56 33 98.5t91 63.5q131 47 162 66q51 30 51 72q0 27 -26 45.5t-64 18.5q-102 0 -121 -108z" />
    <glyph glyph-name="Agrave" unicode="&#xc0;" horiz-adv-x="740" 
d="M399 718h17l241 -718h-74l-78 235h-304l-135 -235h-80zM482 304l-89 264l-153 -264h242zM318 924h105l85 -151h-67z" />
    <glyph glyph-name="Aacute" unicode="&#xc1;" horiz-adv-x="740" 
d="M399 718h17l241 -718h-74l-78 235h-304l-135 -235h-80zM482 304l-89 264l-153 -264h242zM351 773l128 151h105l-166 -151h-67z" />
    <glyph glyph-name="Acircumflex" unicode="&#xc2;" horiz-adv-x="740" 
d="M399 718h17l241 -718h-74l-78 235h-304l-135 -235h-80zM482 304l-89 264l-153 -264h242zM240 771l163 125h68l124 -125h-89l-75 74l-100 -74h-91z" />
    <glyph glyph-name="Atilde" unicode="&#xc3;" horiz-adv-x="740" 
d="M399 718h17l241 -718h-74l-78 235h-304l-135 -235h-80zM482 304l-89 264l-153 -264h242zM493 845q28 0 78 26l27 -47q-65 -42 -116 -42q-34 0 -73 19.5t-60 19.5q-31 0 -82 -34l-25 50q52 47 116 47q30 0 71.5 -19.5t63.5 -19.5z" />
    <glyph glyph-name="Adieresis" unicode="&#xc4;" horiz-adv-x="740" 
d="M399 718h17l241 -718h-74l-78 235h-304l-135 -235h-80zM482 304l-89 264l-153 -264h242zM334 884q49 0 49 -57q0 -19 -19.5 -37.5t-44.5 -18.5q-49 0 -49 56q0 19 19.5 38t44.5 19zM534 884q48 0 48 -57q0 -18 -19.5 -37t-44.5 -19q-49 0 -49 56q0 18 20 37.5t45 19.5z
" />
    <glyph glyph-name="Aring" unicode="&#xc5;" horiz-adv-x="740" 
d="M399 718h17l241 -718h-74l-78 235h-304l-135 -235h-80zM482 304l-89 264l-153 -264h242zM398 958q42 0 71.5 -29t29.5 -72q0 -42 -29.5 -72t-71.5 -30t-72 30t-30 72t29.5 71.5t72.5 29.5zM398 916q-25 1 -42 -16.5t-17 -42.5t17.5 -42t41.5 -17q25 0 42 17.5t17 41.5
q1 24 -17 41.5t-42 17.5z" />
    <glyph glyph-name="AE" unicode="&#xc6;" horiz-adv-x="992" 
d="M859 69l-8 -69h-406l32 234h-247l-168 -234h-78l517 718h437l-10 -69h-323l-32 -236h323l-9 -69h-323l-37 -275h332zM486 303l47 353l-253 -353h206z" />
    <glyph glyph-name="Ccedilla" unicode="&#xc7;" horiz-adv-x="813" 
d="M655 134l41 -57q-74 -49 -137 -71.5t-153 -22.5q-168 0 -267.5 96t-99.5 245q0 174 125 293t309 119q88 0 157.5 -28t139.5 -89l-44 -60q-113 107 -260 107q-146 0 -250 -99.5t-104 -240.5q0 -125 81.5 -200.5t213.5 -75.5q134 0 248 84zM304 -99l27 99h43l-17 -58
q14 2 19 2q49 0 49 -52q0 -26 -33 -52t-90 -26q-42 0 -79 15l15 34q28 -10 58 -10q34 0 52 9.5t18 22.5q0 21 -28 21q-12 0 -34 -5z" />
    <glyph glyph-name="Egrave" unicode="&#xc8;" horiz-adv-x="536" 
d="M120 718h396l-10 -69h-323l-32 -236h323l-9 -69h-323l-37 -275h323l-8 -69h-396zM214 924h105l85 -151h-67z" />
    <glyph glyph-name="Eacute" unicode="&#xc9;" horiz-adv-x="536" 
d="M120 718h396l-10 -69h-323l-32 -236h323l-9 -69h-323l-37 -275h323l-8 -69h-396zM266 773l128 151h105l-166 -151h-67z" />
    <glyph glyph-name="Ecircumflex" unicode="&#xca;" horiz-adv-x="536" 
d="M120 718h396l-10 -69h-323l-32 -236h323l-9 -69h-323l-37 -275h323l-8 -69h-396zM156 771l163 125h68l124 -125h-89l-75 74l-100 -74h-91z" />
    <glyph glyph-name="Edieresis" unicode="&#xcb;" horiz-adv-x="536" 
d="M120 718h396l-10 -69h-323l-32 -236h323l-9 -69h-323l-37 -275h323l-8 -69h-396zM249 884q49 0 49 -57q0 -19 -19.5 -37.5t-44.5 -18.5q-49 0 -49 56q0 19 19.5 38t44.5 19zM449 884q48 0 48 -57q0 -18 -19.5 -37t-44.5 -19q-49 0 -49 56q0 18 20 37.5t45 19.5z" />
    <glyph glyph-name="Igrave" unicode="&#xcc;" horiz-adv-x="226" 
d="M19 0l97 718h72l-96 -718h-73zM59 924h105l85 -151h-67z" />
    <glyph glyph-name="Iacute" unicode="&#xcd;" horiz-adv-x="226" 
d="M19 0l97 718h72l-96 -718h-73zM92 773l128 151h105l-166 -151h-67z" />
    <glyph glyph-name="Icircumflex" unicode="&#xce;" horiz-adv-x="226" 
d="M19 0l97 718h72l-96 -718h-73zM-19 771l163 125h68l124 -125h-89l-75 74l-100 -74h-91z" />
    <glyph glyph-name="Idieresis" unicode="&#xcf;" horiz-adv-x="226" 
d="M19 0l97 718h72l-96 -718h-73zM75 884q49 0 49 -57q0 -19 -19.5 -37.5t-44.5 -18.5q-49 0 -49 56q0 19 19.5 38t44.5 19zM275 884q48 0 48 -57q0 -18 -19.5 -37t-44.5 -19q-49 0 -49 56q0 18 20 37.5t45 19.5z" />
    <glyph glyph-name="Eth" unicode="&#xd0;" horiz-adv-x="790" 
d="M68 0l44 327h-91l9 64h90l44 327h170q181 0 274 -82q51 -44 79 -111.5t28 -145.5q0 -90 -36 -171.5t-96 -130.5q-54 -44 -118 -60.5t-154 -16.5h-243zM358 327h-175l-34 -258h80q69 0 106.5 1.5t82.5 9.5t77 25q68 35 110 109t42 163q0 101 -56 171t-152 91
q-44 10 -126 10h-87l-35 -258h175z" />
    <glyph glyph-name="Ntilde" unicode="&#xd1;" horiz-adv-x="740" 
d="M542 161l75 557h71l-98 -718h-15l-404 557l-76 -557h-71l97 718h16zM510 845q28 0 78 26l27 -47q-65 -42 -116 -42q-34 0 -73 19.5t-60 19.5q-31 0 -82 -34l-25 50q52 47 116 47q30 0 71.5 -19.5t63.5 -19.5z" />
    <glyph glyph-name="Ograve" unicode="&#xd2;" horiz-adv-x="869" 
d="M466 736q143 0 241 -93.5t98 -242.5q0 -177 -122 -297.5t-306 -120.5q-157 0 -250 93t-93 243q0 178 122.5 298t309.5 120zM465 669q-158 0 -258 -102.5t-100 -246.5q0 -121 72.5 -196t196.5 -75q151 0 253.5 102.5t102.5 252.5q0 118 -76.5 191.5t-190.5 73.5zM380 924
h105l85 -151h-67z" />
    <glyph glyph-name="Oacute" unicode="&#xd3;" horiz-adv-x="869" 
d="M466 736q143 0 241 -93.5t98 -242.5q0 -177 -122 -297.5t-306 -120.5q-157 0 -250 93t-93 243q0 178 122.5 298t309.5 120zM465 669q-158 0 -258 -102.5t-100 -246.5q0 -121 72.5 -196t196.5 -75q151 0 253.5 102.5t102.5 252.5q0 118 -76.5 191.5t-190.5 73.5zM432 773
l128 151h105l-166 -151h-67z" />
    <glyph glyph-name="Ocircumflex" unicode="&#xd4;" horiz-adv-x="869" 
d="M466 736q143 0 241 -93.5t98 -242.5q0 -177 -122 -297.5t-306 -120.5q-157 0 -250 93t-93 243q0 178 122.5 298t309.5 120zM465 669q-158 0 -258 -102.5t-100 -246.5q0 -121 72.5 -196t196.5 -75q151 0 253.5 102.5t102.5 252.5q0 118 -76.5 191.5t-190.5 73.5zM322 771
l163 125h68l124 -125h-89l-75 74l-100 -74h-91z" />
    <glyph glyph-name="Otilde" unicode="&#xd5;" horiz-adv-x="869" 
d="M466 736q143 0 241 -93.5t98 -242.5q0 -177 -122 -297.5t-306 -120.5q-157 0 -250 93t-93 243q0 178 122.5 298t309.5 120zM465 669q-158 0 -258 -102.5t-100 -246.5q0 -121 72.5 -196t196.5 -75q151 0 253.5 102.5t102.5 252.5q0 118 -76.5 191.5t-190.5 73.5zM575 845
q28 0 78 26l27 -47q-65 -42 -116 -42q-34 0 -73 19.5t-60 19.5q-31 0 -82 -34l-25 50q52 47 116 47q30 0 71.5 -19.5t63.5 -19.5z" />
    <glyph glyph-name="Odieresis" unicode="&#xd6;" horiz-adv-x="869" 
d="M466 736q143 0 241 -93.5t98 -242.5q0 -177 -122 -297.5t-306 -120.5q-157 0 -250 93t-93 243q0 178 122.5 298t309.5 120zM465 669q-158 0 -258 -102.5t-100 -246.5q0 -121 72.5 -196t196.5 -75q151 0 253.5 102.5t102.5 252.5q0 118 -76.5 191.5t-190.5 73.5zM415 884
q49 0 49 -57q0 -19 -19.5 -37.5t-44.5 -18.5q-49 0 -49 56q0 19 19.5 38t44.5 19zM615 884q48 0 48 -57q0 -18 -19.5 -37t-44.5 -19q-49 0 -49 56q0 18 20 37.5t45 19.5z" />
    <glyph glyph-name="multiply" unicode="&#xd7;" horiz-adv-x="606" 
d="M510 521l-162 -162l162 -162l-45 -45l-162 162l-162 -162l-45 45l162 162l-162 162l45 45l162 -162l162 162z" />
    <glyph glyph-name="Oslash" unicode="&#xd8;" horiz-adv-x="868" 
d="M772 703l-59 -68q92 -93 92 -235q0 -177 -122 -297.5t-306 -120.5q-113 0 -194 49l-64 -74l-48 43l62 71q-99 96 -99 247q0 178 122.5 298t309.5 120q111 0 197 -58l59 67zM667 583l-436 -498q65 -36 145 -36q151 0 253.5 102.5t102.5 252.5q0 107 -65 179zM179 124
l439 501q-67 44 -153 44q-158 0 -258 -102.5t-100 -246.5q0 -119 72 -196z" />
    <glyph glyph-name="Ugrave" unicode="&#xd9;" horiz-adv-x="655" 
d="M61 318l52 400h71l-54 -411q-10 -78 -10 -114q0 -71 38 -107t109 -36q90 0 141 53q35 35 52 96.5t31 171.5l44 347h71l-48 -362q-1 -10 -4.5 -38.5t-6 -46.5t-8.5 -45t-13 -51q-30 -99 -92.5 -145.5t-165.5 -46.5q-105 0 -163 52.5t-58 145.5q0 22 14 137zM273 924h105
l85 -151h-67z" />
    <glyph glyph-name="Uacute" unicode="&#xda;" horiz-adv-x="655" 
d="M61 318l52 400h71l-54 -411q-10 -78 -10 -114q0 -71 38 -107t109 -36q90 0 141 53q35 35 52 96.5t31 171.5l44 347h71l-48 -362q-1 -10 -4.5 -38.5t-6 -46.5t-8.5 -45t-13 -51q-30 -99 -92.5 -145.5t-165.5 -46.5q-105 0 -163 52.5t-58 145.5q0 22 14 137zM326 773
l128 151h105l-166 -151h-67z" />
    <glyph glyph-name="Ucircumflex" unicode="&#xdb;" horiz-adv-x="655" 
d="M61 318l52 400h71l-54 -411q-10 -78 -10 -114q0 -71 38 -107t109 -36q90 0 141 53q35 35 52 96.5t31 171.5l44 347h71l-48 -362q-1 -10 -4.5 -38.5t-6 -46.5t-8.5 -45t-13 -51q-30 -99 -92.5 -145.5t-165.5 -46.5q-105 0 -163 52.5t-58 145.5q0 22 14 137zM215 771
l163 125h68l124 -125h-89l-75 74l-100 -74h-91z" />
    <glyph glyph-name="Udieresis" unicode="&#xdc;" horiz-adv-x="655" 
d="M61 318l52 400h71l-54 -411q-10 -78 -10 -114q0 -71 38 -107t109 -36q90 0 141 53q35 35 52 96.5t31 171.5l44 347h71l-48 -362q-1 -10 -4.5 -38.5t-6 -46.5t-8.5 -45t-13 -51q-30 -99 -92.5 -145.5t-165.5 -46.5q-105 0 -163 52.5t-58 145.5q0 22 14 137zM309 884
q49 0 49 -57q0 -19 -19.5 -37.5t-44.5 -18.5q-49 0 -49 56q0 19 19.5 38t44.5 19zM509 884q48 0 48 -57q0 -18 -19.5 -37t-44.5 -19q-49 0 -49 56q0 18 20 37.5t45 19.5z" />
    <glyph glyph-name="Yacute" unicode="&#xdd;" horiz-adv-x="592" 
d="M228 322l-187 396h75l154 -326l259 326h87l-318 -400l-44 -318h-70zM294 773l128 151h105l-166 -151h-67z" />
    <glyph glyph-name="Thorn" unicode="&#xde;" horiz-adv-x="592" 
d="M32 0l96 718h72l-23 -170h124q75 0 106 -7q59 -14 93 -57.5t34 -104.5q0 -52 -24 -98t-65 -73q-35 -23 -79 -30t-112 -7h-127l-23 -171h-72zM317 479h-148l-33 -239h124q105 0 148 31q53 39 53 107q0 55 -35.5 78t-108.5 23z" />
    <glyph glyph-name="germandbls" unicode="&#xdf;" 
d="M426 589q0 40 -28 67t-73 27q-70 0 -117 -55q-16 -19 -26 -44.5t-14 -44.5t-9 -54l-68 -485h-69l69 485q10 72 27 119t52 82q64 64 157 64q72 0 118 -44.5t46 -112.5q0 -142 -139 -190q122 -57 122 -178q0 -100 -63 -169.5t-161 -69.5q-63 0 -103 26l9 67q50 -26 91 -26
q62 0 110.5 47t48.5 117q0 127 -168 154l10 74q85 2 131.5 42t46.5 102z" />
    <glyph glyph-name="agrave" unicode="&#xe0;" horiz-adv-x="683" 
d="M535 430l12 101h71l-71 -531h-69l10 80q-92 -94 -211 -94q-109 0 -178.5 70t-69.5 180q0 129 91.5 219t212.5 90q132 0 202 -115zM285 49q104 0 170.5 70.5t66.5 175.5q0 84 -53 135.5t-135 51.5q-97 0 -167 -70.5t-70 -174.5q0 -86 52.5 -137t135.5 -51zM258 781h105
l85 -151h-67z" />
    <glyph glyph-name="aacute" unicode="&#xe1;" horiz-adv-x="683" 
d="M535 430l12 101h71l-71 -531h-69l10 80q-92 -94 -211 -94q-109 0 -178.5 70t-69.5 180q0 129 91.5 219t212.5 90q132 0 202 -115zM285 49q104 0 170.5 70.5t66.5 175.5q0 84 -53 135.5t-135 51.5q-97 0 -167 -70.5t-70 -174.5q0 -86 52.5 -137t135.5 -51zM310 630
l128 151h105l-166 -151h-67z" />
    <glyph glyph-name="acircumflex" unicode="&#xe2;" horiz-adv-x="683" 
d="M535 430l12 101h71l-71 -531h-69l10 80q-92 -94 -211 -94q-109 0 -178.5 70t-69.5 180q0 129 91.5 219t212.5 90q132 0 202 -115zM285 49q104 0 170.5 70.5t66.5 175.5q0 84 -53 135.5t-135 51.5q-97 0 -167 -70.5t-70 -174.5q0 -86 52.5 -137t135.5 -51zM200 628
l163 125h68l124 -125h-89l-75 74l-100 -74h-91z" />
    <glyph glyph-name="atilde" unicode="&#xe3;" horiz-adv-x="683" 
d="M535 430l12 101h71l-71 -531h-69l10 80q-92 -94 -211 -94q-109 0 -178.5 70t-69.5 180q0 129 91.5 219t212.5 90q132 0 202 -115zM285 49q104 0 170.5 70.5t66.5 175.5q0 84 -53 135.5t-135 51.5q-97 0 -167 -70.5t-70 -174.5q0 -86 52.5 -137t135.5 -51zM452 702
q28 0 78 26l27 -47q-65 -42 -116 -42q-34 0 -73 19.5t-60 19.5q-31 0 -82 -34l-25 50q52 47 116 47q30 0 71.5 -19.5t63.5 -19.5z" />
    <glyph glyph-name="adieresis" unicode="&#xe4;" horiz-adv-x="683" 
d="M535 430l12 101h71l-71 -531h-69l10 80q-92 -94 -211 -94q-109 0 -178.5 70t-69.5 180q0 129 91.5 219t212.5 90q132 0 202 -115zM285 49q104 0 170.5 70.5t66.5 175.5q0 84 -53 135.5t-135 51.5q-97 0 -167 -70.5t-70 -174.5q0 -86 52.5 -137t135.5 -51zM293 741
q49 0 49 -57q0 -19 -19.5 -37.5t-44.5 -18.5q-49 0 -49 56q0 19 19.5 38t44.5 19zM493 741q48 0 48 -57q0 -18 -19.5 -37t-44.5 -19q-49 0 -49 56q0 18 20 37.5t45 19.5z" />
    <glyph glyph-name="aring" unicode="&#xe5;" horiz-adv-x="683" 
d="M535 430l12 101h71l-71 -531h-69l10 80q-92 -94 -211 -94q-109 0 -178.5 70t-69.5 180q0 129 91.5 219t212.5 90q132 0 202 -115zM285 49q104 0 170.5 70.5t66.5 175.5q0 84 -53 135.5t-135 51.5q-97 0 -167 -70.5t-70 -174.5q0 -86 52.5 -137t135.5 -51zM358 815
q42 0 71.5 -29t29.5 -72q0 -42 -29.5 -72t-71.5 -30t-72 30t-30 72t29.5 71.5t72.5 29.5zM358 773q-25 1 -42 -16.5t-17 -42.5t17.5 -42t41.5 -17q25 0 42 17.5t17 41.5q1 24 -17 41.5t-42 17.5z" />
    <glyph glyph-name="ae" unicode="&#xe6;" horiz-adv-x="1157" 
d="M490 0l10 83q-96 -96 -223 -96q-114 0 -181.5 72t-67.5 182q0 125 90 214.5t215 89.5q72 0 122.5 -29t90.5 -91l15 106h61l-11 -87q89 101 222 101q107 0 177 -67.5t70 -178.5q0 -20 -4 -48h-481q-1 -8 -1 -21q0 -76 53 -128t140 -52q109 0 183 84l52 -38
q-88 -109 -242 -109q-145 0 -216 111l-13 -98h-61zM333 482q-103 0 -170 -71.5t-67 -172.5q0 -85 53 -136.5t140 -51.5q104 0 172.5 70.5t68.5 166.5q0 82 -54 138.5t-143 56.5zM608 311h408q-2 76 -51.5 123.5t-131.5 47.5q-81 0 -141 -45.5t-84 -125.5z" />
    <glyph glyph-name="ccedilla" unicode="&#xe7;" horiz-adv-x="647" 
d="M498 137l56 -40q-101 -111 -258 -111q-125 0 -196 69t-71 183q0 129 93 218t227 89q79 0 141 -33.5t95 -94.5l-57 -33q-59 94 -180 94q-109 0 -180 -68t-71 -168q0 -87 53 -140t143 -53q60 0 116 24.5t89 63.5zM221 -99l27 99h43l-17 -58q14 2 19 2q49 0 49 -52
q0 -26 -33 -52t-90 -26q-42 0 -79 15l15 34q28 -10 58 -10q34 0 52 9.5t18 22.5q0 21 -28 21q-12 0 -34 -5z" />
    <glyph glyph-name="egrave" unicode="&#xe8;" horiz-adv-x="650" 
d="M464 136l51 -41q-40 -50 -102 -79.5t-134 -29.5q-116 0 -183 72.5t-67 179.5q0 124 89.5 216t219.5 92q105 0 170.5 -70.5t65.5 -175.5q0 -20 -4 -48h-473v-14q0 -83 50.5 -136t133.5 -53q118 0 183 87zM108 312h400q-3 76 -51.5 121.5t-122.5 45.5q-78 0 -139 -44
t-87 -123zM241 781h105l85 -151h-67z" />
    <glyph glyph-name="eacute" unicode="&#xe9;" horiz-adv-x="650" 
d="M464 136l51 -41q-40 -50 -102 -79.5t-134 -29.5q-116 0 -183 72.5t-67 179.5q0 124 89.5 216t219.5 92q105 0 170.5 -70.5t65.5 -175.5q0 -20 -4 -48h-473v-14q0 -83 50.5 -136t133.5 -53q118 0 183 87zM108 312h400q-3 76 -51.5 121.5t-122.5 45.5q-78 0 -139 -44
t-87 -123zM293 630l128 151h105l-166 -151h-67z" />
    <glyph glyph-name="ecircumflex" unicode="&#xea;" horiz-adv-x="650" 
d="M464 136l51 -41q-40 -50 -102 -79.5t-134 -29.5q-116 0 -183 72.5t-67 179.5q0 124 89.5 216t219.5 92q105 0 170.5 -70.5t65.5 -175.5q0 -20 -4 -48h-473v-14q0 -83 50.5 -136t133.5 -53q118 0 183 87zM108 312h400q-3 76 -51.5 121.5t-122.5 45.5q-78 0 -139 -44
t-87 -123zM183 628l163 125h68l124 -125h-89l-75 74l-100 -74h-91z" />
    <glyph glyph-name="edieresis" unicode="&#xeb;" horiz-adv-x="650" 
d="M464 136l51 -41q-40 -50 -102 -79.5t-134 -29.5q-116 0 -183 72.5t-67 179.5q0 124 89.5 216t219.5 92q105 0 170.5 -70.5t65.5 -175.5q0 -20 -4 -48h-473v-14q0 -83 50.5 -136t133.5 -53q118 0 183 87zM108 312h400q-3 76 -51.5 121.5t-122.5 45.5q-78 0 -139 -44
t-87 -123zM277 741q49 0 49 -57q0 -19 -19.5 -37.5t-44.5 -18.5q-49 0 -49 56q0 19 19.5 38t44.5 19zM477 741q48 0 48 -57q0 -18 -19.5 -37t-44.5 -19q-49 0 -49 56q0 18 20 37.5t45 19.5z" />
    <glyph glyph-name="igrave" unicode="&#xec;" horiz-adv-x="200" 
d="M7 0l73 531h65l-71 -531h-67zM17 781h105l85 -151h-67z" />
    <glyph glyph-name="iacute" unicode="&#xed;" horiz-adv-x="200" 
d="M7 0l73 531h65l-71 -531h-67zM70 630l128 151h105l-166 -151h-67z" />
    <glyph glyph-name="icircumflex" unicode="&#xee;" horiz-adv-x="200" 
d="M7 0l73 531h65l-71 -531h-67zM-41 628l163 125h68l124 -125h-89l-75 74l-100 -74h-91z" />
    <glyph glyph-name="idieresis" unicode="&#xef;" horiz-adv-x="200" 
d="M7 0l73 531h65l-71 -531h-67zM53 741q49 0 49 -57q0 -19 -19.5 -37.5t-44.5 -18.5q-49 0 -49 56q0 19 19.5 38t44.5 19zM253 741q48 0 48 -57q0 -18 -19.5 -37t-44.5 -19q-49 0 -49 56q0 18 20 37.5t45 19.5z" />
    <glyph glyph-name="eth" unicode="&#xf0;" horiz-adv-x="655" 
d="M240 638l86 32q-42 32 -96 66h92q29 -16 64 -43l90 33l17 -49l-62 -23q69 -68 107.5 -156t38.5 -181q0 -145 -92 -238t-214 -93q-107 0 -174.5 73.5t-67.5 178.5q0 119 92 212.5t206 93.5q83 0 139 -50q-39 78 -96 137l-111 -42zM338 477q-97 0 -169 -71.5t-72 -168.5
q0 -80 49 -132t127 -52q90 0 163 72.5t73 174.5q0 79 -49.5 128t-121.5 49z" />
    <glyph glyph-name="ntilde" unicode="&#xf1;" horiz-adv-x="610" 
d="M159 531l-10 -81q81 95 188 95q80 0 131 -49.5t51 -133.5q0 -44 -11 -118l-33 -244h-67l33 244q10 82 10 114q0 56 -33 90t-89 34q-50 0 -94 -23.5t-70 -64.5q-29 -45 -46 -164l-32 -230h-67l74 531h65zM416 702q28 0 78 26l27 -47q-65 -42 -116 -42q-34 0 -73 19.5
t-60 19.5q-31 0 -82 -34l-25 50q52 47 116 47q30 0 71.5 -19.5t63.5 -19.5z" />
    <glyph glyph-name="ograve" unicode="&#xf2;" horiz-adv-x="655" 
d="M332 545q105 0 175 -71t70 -183q0 -128 -85.5 -216t-219.5 -88q-109 0 -177 70t-68 178q0 130 88.5 220t216.5 90zM330 482q-99 0 -167 -69t-68 -174q0 -83 51.5 -136t134.5 -53q101 0 164.5 70.5t63.5 171.5q0 84 -51 137t-128 53zM244 781h105l85 -151h-67z" />
    <glyph glyph-name="oacute" unicode="&#xf3;" horiz-adv-x="655" 
d="M332 545q105 0 175 -71t70 -183q0 -128 -85.5 -216t-219.5 -88q-109 0 -177 70t-68 178q0 130 88.5 220t216.5 90zM330 482q-99 0 -167 -69t-68 -174q0 -83 51.5 -136t134.5 -53q101 0 164.5 70.5t63.5 171.5q0 84 -51 137t-128 53zM296 630l128 151h105l-166 -151h-67z
" />
    <glyph glyph-name="ocircumflex" unicode="&#xf4;" horiz-adv-x="655" 
d="M332 545q105 0 175 -71t70 -183q0 -128 -85.5 -216t-219.5 -88q-109 0 -177 70t-68 178q0 130 88.5 220t216.5 90zM330 482q-99 0 -167 -69t-68 -174q0 -83 51.5 -136t134.5 -53q101 0 164.5 70.5t63.5 171.5q0 84 -51 137t-128 53zM186 628l163 125h68l124 -125h-89
l-75 74l-100 -74h-91z" />
    <glyph glyph-name="otilde" unicode="&#xf5;" horiz-adv-x="655" 
d="M332 545q105 0 175 -71t70 -183q0 -128 -85.5 -216t-219.5 -88q-109 0 -177 70t-68 178q0 130 88.5 220t216.5 90zM330 482q-99 0 -167 -69t-68 -174q0 -83 51.5 -136t134.5 -53q101 0 164.5 70.5t63.5 171.5q0 84 -51 137t-128 53zM438 702q28 0 78 26l27 -47
q-65 -42 -116 -42q-34 0 -73 19.5t-60 19.5q-31 0 -82 -34l-25 50q52 47 116 47q30 0 71.5 -19.5t63.5 -19.5z" />
    <glyph glyph-name="odieresis" unicode="&#xf6;" horiz-adv-x="655" 
d="M332 545q105 0 175 -71t70 -183q0 -128 -85.5 -216t-219.5 -88q-109 0 -177 70t-68 178q0 130 88.5 220t216.5 90zM330 482q-99 0 -167 -69t-68 -174q0 -83 51.5 -136t134.5 -53q101 0 164.5 70.5t63.5 171.5q0 84 -51 137t-128 53zM279 741q49 0 49 -57
q0 -19 -19.5 -37.5t-44.5 -18.5q-49 0 -49 56q0 19 19.5 38t44.5 19zM479 741q48 0 48 -57q0 -18 -19.5 -37t-44.5 -19q-49 0 -49 56q0 18 20 37.5t45 19.5z" />
    <glyph glyph-name="divide" unicode="&#xf7;" horiz-adv-x="606" 
d="M254 491v99h98v-99h-98zM254 128v100h98v-100h-98zM56 325v69h494v-69h-494z" />
    <glyph glyph-name="oslash" unicode="&#xf8;" horiz-adv-x="653" 
d="M585 527l-63 -72q54 -73 54 -164q0 -128 -85.5 -216t-218.5 -88q-75 0 -129 32l-63 -73l-50 42l62 71q-66 72 -66 176q0 131 88.5 220.5t212.5 89.5q88 0 149 -45l59 68zM478 404l-290 -333q41 -21 92 -21q101 0 164.5 70.5t63.5 171.5q0 63 -30 112zM137 111l295 339
q-49 32 -107 32q-95 0 -163 -69t-68 -174q0 -76 43 -128z" />
    <glyph glyph-name="ugrave" unicode="&#xf9;" horiz-adv-x="608" 
d="M65 329l27 202h68l-30 -222q-13 -97 -13 -121q0 -62 41.5 -100t106.5 -38q40 0 75 16.5t57 45.5q6 8 11 17t8.5 16.5t7 19t5.5 18t4 21t3 20t3 21.5t3 21l38 265h66l-27 -201q-14 -102 -28 -160.5t-39 -93.5q-30 -42 -80 -65.5t-110 -23.5q-93 0 -151.5 55.5t-58.5 142.5
q0 44 13 144zM220 781h105l85 -151h-67z" />
    <glyph glyph-name="uacute" unicode="&#xfa;" horiz-adv-x="608" 
d="M65 329l27 202h68l-30 -222q-13 -97 -13 -121q0 -62 41.5 -100t106.5 -38q40 0 75 16.5t57 45.5q6 8 11 17t8.5 16.5t7 19t5.5 18t4 21t3 20t3 21.5t3 21l38 265h66l-27 -201q-14 -102 -28 -160.5t-39 -93.5q-30 -42 -80 -65.5t-110 -23.5q-93 0 -151.5 55.5t-58.5 142.5
q0 44 13 144zM273 630l128 151h105l-166 -151h-67z" />
    <glyph glyph-name="ucircumflex" unicode="&#xfb;" horiz-adv-x="608" 
d="M65 329l27 202h68l-30 -222q-13 -97 -13 -121q0 -62 41.5 -100t106.5 -38q40 0 75 16.5t57 45.5q6 8 11 17t8.5 16.5t7 19t5.5 18t4 21t3 20t3 21.5t3 21l38 265h66l-27 -201q-14 -102 -28 -160.5t-39 -93.5q-30 -42 -80 -65.5t-110 -23.5q-93 0 -151.5 55.5t-58.5 142.5
q0 44 13 144zM162 628l163 125h68l124 -125h-89l-75 74l-100 -74h-91z" />
    <glyph glyph-name="udieresis" unicode="&#xfc;" horiz-adv-x="608" 
d="M65 329l27 202h68l-30 -222q-13 -97 -13 -121q0 -62 41.5 -100t106.5 -38q40 0 75 16.5t57 45.5q6 8 11 17t8.5 16.5t7 19t5.5 18t4 21t3 20t3 21.5t3 21l38 265h66l-27 -201q-14 -102 -28 -160.5t-39 -93.5q-30 -42 -80 -65.5t-110 -23.5q-93 0 -151.5 55.5t-58.5 142.5
q0 44 13 144zM256 741q49 0 49 -57q0 -19 -19.5 -37.5t-44.5 -18.5q-49 0 -49 56q0 19 19.5 38t44.5 19zM456 741q48 0 48 -57q0 -18 -19.5 -37t-44.5 -19q-49 0 -49 56q0 18 20 37.5t45 19.5z" />
    <glyph glyph-name="yacute" unicode="&#xfd;" horiz-adv-x="536" 
d="M187 65l-164 466h71l137 -392l228 392h75l-420 -725h-77zM237 630l128 151h105l-166 -151h-67z" />
    <glyph glyph-name="thorn" unicode="&#xfe;" horiz-adv-x="682" 
d="M3 -194l124 930h69l-37 -284q91 93 211 93q109 0 178.5 -69.5t69.5 -179.5q0 -130 -91 -219.5t-213 -89.5q-134 0 -202 114l-38 -295h-71zM362 482q-103 0 -170 -70.5t-67 -175.5q0 -84 53 -135t135 -51q97 0 167 69.5t70 174.5q0 86 -52.5 137t-135.5 51z" />
    <glyph glyph-name="ydieresis" unicode="&#xff;" horiz-adv-x="536" 
d="M187 65l-164 466h71l137 -392l228 392h75l-420 -725h-77zM220 741q49 0 49 -57q0 -19 -19.5 -37.5t-44.5 -18.5q-49 0 -49 56q0 19 19.5 38t44.5 19zM420 741q48 0 48 -57q0 -18 -19.5 -37t-44.5 -19q-49 0 -49 56q0 18 20 37.5t45 19.5z" />
    <glyph glyph-name="dotlessi" unicode="&#x131;" horiz-adv-x="200" 
d="M7 0l73 531h65l-71 -531h-67z" />
    <glyph glyph-name="Lslash" unicode="&#x141;" horiz-adv-x="517" 
d="M220 718l-41 -311l138 69l-11 -78l-137 -69l-35 -260h310l-8 -69h-383l39 291l-88 -44l11 78l87 44l46 349h72z" />
    <glyph glyph-name="lslash" unicode="&#x142;" horiz-adv-x="300" 
d="M227 736l-41 -290l110 62l-11 -78l-109 -62l-52 -368h-67l46 327l-98 -56l11 78l98 56l46 331h67z" />
    <glyph glyph-name="OE" unicode="&#x152;" horiz-adv-x="1194" 
d="M681 0l16 117q-130 -135 -319 -135q-157 0 -248.5 95t-91.5 244q0 175 121.5 295t297.5 120q207 0 301 -166l20 148h394l-8 -69h-325l-32 -236h325l-9 -69h-324l-37 -275h324l-9 -69h-396zM454 669q-59 0 -118 -23.5t-110 -66t-83 -111.5t-32 -151q0 -121 76 -196.5
t192 -75.5q143 0 249 103.5t106 249.5q0 122 -78.5 196.5t-201.5 74.5z" />
    <glyph glyph-name="oe" unicode="&#x153;" horiz-adv-x="1138" 
d="M819 544q107 0 172 -68t65 -177q0 -19 -4 -47h-472q-1 -11 -1 -27q0 -75 50.5 -125t134.5 -50q110 0 183 86l51 -41q-85 -108 -236 -108q-156 0 -227 137q-49 -69 -109.5 -103t-148.5 -34q-114 0 -179.5 70t-65.5 178q0 126 86 217.5t213 91.5q79 0 139.5 -37.5
t88.5 -105.5q98 143 260 143zM591 312h400q-1 70 -48.5 119.5t-122.5 49.5q-82 0 -147 -48.5t-82 -120.5zM334 481q-99 0 -166.5 -68.5t-67.5 -176.5q0 -89 51 -137.5t134 -48.5q97 0 164 69.5t67 172.5q0 86 -51 137.5t-131 51.5z" />
    <glyph glyph-name="Scaron" unicode="&#x160;" horiz-adv-x="498" 
d="M7 155l67 22q15 -64 49.5 -95.5t81.5 -31.5q52 0 90.5 38t38.5 96q0 16 -3 30.5t-6.5 26t-14 27t-16.5 24t-24 27.5t-27 27.5t-35 33.5t-38 37q-27 26 -44 67.5t-17 82.5q0 75 49 122t119 47q61 0 107 -38t68 -112l-67 -18q-14 45 -45 73t-68 28q-41 0 -65.5 -29
t-24.5 -73q0 -29 14.5 -61t36.5 -53q94 -86 134 -143t40 -123q0 -82 -61 -143t-147 -61q-70 0 -120 44.5t-72 127.5zM509 896l-163 -125h-68l-124 125h88l76 -74l100 74h91z" />
    <glyph glyph-name="scaron" unicode="&#x161;" horiz-adv-x="388" 
d="M-17 74l41 48q60 -72 128 -72q38 0 68 27t30 66q0 47 -42 77q-12 8 -34 23.5t-31 22t-25.5 19t-23 19l-17.5 17.5t-15.5 18.5t-10 18.5t-7 22t-1.5 23q0 60 46 101t112 41q46 0 77 -18.5t61 -54.5l-37 -56q-47 66 -106 66q-36 0 -60.5 -24t-24.5 -52q0 -39 46 -69
q42 -27 55.5 -36.5t41 -32t37 -37.5t18.5 -39t9 -51q0 -68 -48 -111t-121 -43q-98 0 -166 87zM426 753l-163 -125h-68l-124 125h88l76 -74l100 74h91z" />
    <glyph glyph-name="Ydieresis" unicode="&#x178;" horiz-adv-x="592" 
d="M228 322l-187 396h75l154 -326l259 326h87l-318 -400l-44 -318h-70zM277 884q49 0 49 -57q0 -19 -19.5 -37.5t-44.5 -18.5q-49 0 -49 56q0 19 19.5 38t44.5 19zM477 884q48 0 48 -57q0 -18 -19.5 -37t-44.5 -19q-49 0 -49 56q0 18 20 37.5t45 19.5z" />
    <glyph glyph-name="Zcaron" unicode="&#x17d;" horiz-adv-x="480" 
d="M97 649l10 69h369l-353 -649h269l-9 -69h-376l354 649h-264zM500 896l-163 -125h-68l-124 125h88l76 -74l100 74h91z" />
    <glyph glyph-name="zcaron" unicode="&#x17e;" horiz-adv-x="425" 
d="M37 471l8 60h365l-317 -471h288l-8 -60h-401l319 471h-254zM444 753l-163 -125h-68l-124 125h88l76 -74l100 74h91z" />
    <glyph glyph-name="florin" unicode="&#x192;" 
d="M312 574l-20 -143h112l-8 -60h-113l-53 -347q-18 -117 -55.5 -174.5t-100.5 -57.5q-32 0 -70 24l9 60q27 -21 54 -21q40 0 63.5 43t37.5 137l49 336h-69l8 60h69l24 156q13 81 27 106q8 16 19 27q29 31 67 31q37 0 86 -33l-9 -65q-37 35 -67 35q-20 0 -32.5 -16.5
t-17.5 -37.5t-10 -60z" />
    <glyph glyph-name="circumflex" unicode="&#x2c6;" horiz-adv-x="502" 
d="M109 628l163 125h68l124 -125h-89l-75 74l-100 -74h-91z" />
    <glyph glyph-name="caron" unicode="&#x2c7;" horiz-adv-x="502" 
d="M482 753l-163 -125h-68l-124 125h88l76 -74l100 74h91z" />
    <glyph glyph-name="uni02C9" unicode="&#x2c9;" horiz-adv-x="485" 
d="M114 663l8 60h337l-8 -60h-337z" />
    <glyph glyph-name="breve" unicode="&#x2d8;" horiz-adv-x="453" 
d="M389 745h62q-17 -46 -65.5 -74.5t-119.5 -28.5q-70 0 -112.5 28t-48.5 75h64q26 -51 104 -51q39 0 65 11.5t51 39.5z" />
    <glyph glyph-name="dotaccent" unicode="&#x2d9;" horiz-adv-x="222" 
d="M162 741q49 0 49 -57q0 -19 -19.5 -37.5t-44.5 -18.5q-49 0 -49 56q0 19 19.5 38t44.5 19z" />
    <glyph glyph-name="ring" unicode="&#x2da;" horiz-adv-x="332" 
d="M182 815q42 0 71.5 -29t29.5 -72q0 -42 -29.5 -72t-71.5 -30t-72 30t-30 72t29.5 71.5t72.5 29.5zM182 773q-25 1 -42 -16.5t-17 -42.5t17.5 -42t41.5 -17q25 0 42 17.5t17 41.5q1 24 -17 41.5t-42 17.5z" />
    <glyph glyph-name="ogonek" unicode="&#x2db;" horiz-adv-x="302" 
d="M230 -145l-11 -42q-19 -4 -42 -4q-52 0 -75.5 20.5t-23.5 66.5q0 22 20.5 53t52.5 51h53q-71 -54 -71 -93q0 -29 14.5 -42t47.5 -13q8 0 35 3z" />
    <glyph glyph-name="tilde" unicode="&#x2dc;" horiz-adv-x="439" 
d="M330 702q28 0 78 26l27 -47q-65 -42 -116 -42q-34 0 -73 19.5t-60 19.5q-31 0 -82 -34l-25 50q52 47 116 47q30 0 71.5 -19.5t63.5 -19.5z" />
    <glyph glyph-name="hungarumlaut" unicode="&#x2dd;" horiz-adv-x="552" 
d="M161 630l128 151h105l-166 -151h-67zM315 630l128 151h105l-165 -151h-68z" />
    <glyph glyph-name="uni03A9" unicode="&#x3a9;" horiz-adv-x="712" 
d="M661 0h-225v57q29 25 51.5 49.5t48.5 64t40.5 92.5t14.5 114q0 121 -61 198.5t-171 77.5q-106 0 -172 -77.5t-66 -198.5q0 -189 156 -320v-57h-225v57h156q-157 123 -157 328q0 141 86.5 234t221.5 93q141 0 221.5 -89.5t80.5 -235.5q0 -109 -46.5 -193.5t-111.5 -136.5
h158v-57z" />
    <glyph glyph-name="uni03BC" unicode="&#x3bc;" horiz-adv-x="608" 
d="M394 0l8 58q-67 -70 -157 -70q-92 0 -139 68l-34 -250h-68l100 725h68l-39 -280q-6 -42 -6 -61q0 -60 37 -94t93 -34q52 0 95.5 32t60.5 82q8 23 16 83l38 272h69l-73 -531h-69z" />
    <glyph glyph-name="pi" unicode="&#x3c0;" horiz-adv-x="655" 
d="M597 54l14 -48q-23 -13 -61 -13q-59 0 -87.5 35.5t-28.5 93.5v324h-199v-314q0 -82 -14 -132h-68q15 57 15 135v311q-54 0 -104 -23l-20 50q56 27 140 27h426v-54h-108v-318q0 -81 64 -81q14 0 31 7z" />
    <glyph glyph-name="endash" unicode="&#x2013;" horiz-adv-x="500" 
d="M-6 248v63h512v-63h-512z" />
    <glyph glyph-name="emdash" unicode="&#x2014;" horiz-adv-x="1000" 
d="M-6 248v63h1012v-63h-1012z" />
    <glyph glyph-name="quoteleft" unicode="&#x2018;" horiz-adv-x="351" 
d="M140 467l6 60q6 63 20 110t51 99l35 -21q-41 -67 -50 -113h43l-19 -135h-86z" />
    <glyph glyph-name="quoteright" unicode="&#x2019;" horiz-adv-x="351" 
d="M252 736l-6 -60q-6 -63 -20.5 -110t-50.5 -99l-35 22q2 3 8.5 13.5t9 15.5t8.5 16.5t9.5 20t7.5 21t7 25.5h-43l19 135h86z" />
    <glyph glyph-name="quotesinglbase" unicode="&#x201a;" horiz-adv-x="354" 
d="M189 135l-6 -60q-6 -63 -20.5 -110t-50.5 -99l-35 22q40 64 50 112h-43l19 135h86z" />
    <glyph glyph-name="quotedblleft" unicode="&#x201c;" horiz-adv-x="502" 
d="M309 467l7 60q5 44 10 70.5t20 64.5t40 74l35 -21q-1 -2 -8 -13.5t-9.5 -16t-8.5 -16t-9.5 -20t-7.5 -21.5t-7 -26h43l-19 -135h-86zM94 467l6 60q6 63 20 110t51 99l35 -21q-41 -67 -50 -113h43l-19 -135h-86z" />
    <glyph glyph-name="quotedblright" unicode="&#x201d;" horiz-adv-x="484" 
d="M197 736l-6 -60q-6 -63 -20.5 -110t-50.5 -99l-35 22q2 3 8.5 13.5t9 15.5t8.5 16.5t9.5 20t7.5 21t7 25.5h-43l19 135h86zM412 736l-6 -60q-6 -62 -20.5 -109.5t-50.5 -99.5l-35 22q41 67 50 112h-43l19 135h86z" />
    <glyph glyph-name="quotedblbase" unicode="&#x201e;" horiz-adv-x="502" 
d="M156 135l-6 -60q-6 -63 -20.5 -110t-50.5 -99l-35 22q40 64 50 112h-43l19 135h86zM371 135l-6 -60q-6 -63 -20.5 -110t-50.5 -99l-35 22q1 2 9.5 16t12 20.5t10 19.5t11 27t7.5 29h-43l19 135h86z" />
    <glyph glyph-name="dagger" unicode="&#x2020;" horiz-adv-x="553" 
d="M263 513l18 223h72l-43 -223l178 11l-11 -73l-174 12l-73 -616h-74l100 616l-178 -12l10 73z" />
    <glyph glyph-name="daggerdbl" unicode="&#x2021;" horiz-adv-x="553" 
d="M270 563l12 173h72l-36 -173l176 12l-10 -72l-173 12l-20 -223l-42 -221l176 10l-10 -73l-173 14l-13 -175h-72l36 175l-176 -14l10 73l173 -10l19 221l44 223l-176 -12l10 72z" />
    <glyph glyph-name="bullet" unicode="&#x2022;" horiz-adv-x="606" 
d="M303 514q62 0 106 -44t44 -106t-44 -106t-106 -44q-63 0 -106.5 44t-43.5 106t44 106t106 44z" />
    <glyph glyph-name="ellipsis" unicode="&#x2026;" horiz-adv-x="1000" 
d="M500 105q25 0 42.5 -17t17.5 -42t-17.5 -42.5t-42.5 -17.5t-42 17.5t-17 42.5t17 42t42 17zM167 105q25 0 42 -17t17 -42t-17 -42.5t-42 -17.5t-42.5 18t-17.5 42q0 25 17.5 42t42.5 17zM833 105q25 0 42.5 -17t17.5 -42t-17.5 -42.5t-42.5 -17.5t-42 18t-17 42
q0 25 17 42t42 17z" />
    <glyph glyph-name="perthousand" unicode="&#x2030;" horiz-adv-x="1174" 
d="M432 713q123 0 246 37h51l-638 -800h-57l587 738q-96 -23 -189 -23q-11 0 -34 2t-28 2q24 -40 24 -81q0 -80 -54 -136t-138 -56q-68 0 -109 42t-41 106q0 78 57.5 135t130.5 57q16 0 78.5 -11.5t113.5 -11.5zM241 684q-55 0 -92.5 -41.5t-37.5 -93.5q0 -43 27 -72t70 -29
q54 0 90.5 41t36.5 97q0 41 -26 69.5t-68 28.5zM580 322q62 0 107 -42t45 -107q0 -79 -54.5 -135t-137.5 -56q-68 0 -109.5 42t-41.5 106q0 78 57 135t134 57zM578 270q-55 0 -92.5 -41.5t-37.5 -93.5q0 -43 27 -72t70 -29q54 0 91 40.5t37 96.5q0 41 -26.5 70t-68.5 29z
M967 322q62 0 106.5 -42t44.5 -107q0 -79 -54 -135t-138 -56q-68 0 -109 42t-41 106q0 78 57 135t134 57zM965 270q-55 0 -92.5 -41.5t-37.5 -93.5q0 -43 27 -72t70 -29q54 0 90.5 40.5t36.5 96.5q0 42 -26 70.5t-68 28.5z" />
    <glyph glyph-name="guilsinglleft" unicode="&#x2039;" horiz-adv-x="251" 
d="M16 272l143 259h74l-147 -268l69 -263h-66z" />
    <glyph glyph-name="guilsinglright" unicode="&#x203a;" horiz-adv-x="251" 
d="M215 259l-143 -259h-74l148 269l-70 262h67z" />
    <glyph glyph-name="fraction" unicode="&#x2044;" horiz-adv-x="166" 
d="M-138 -18h-54l455 754h55z" />
    <glyph glyph-name="Euro" unicode="&#x20ac;" 
d="M32 472h42q51 126 160 195t258 69q40 0 76 -7l-28 -69q-24 6 -51 6q-111 0 -199 -50q-87 -50 -136 -144h320l-28 -69h-316q-10 -33 -10 -83h291l-27 -69h-255q19 -92 99 -146q79 -55 185 -55q43 0 72 7l-9 -68q-28 -6 -60 -6q-141 0 -240 72q-100 73 -122 196h-71l26 69
h37q4 65 9 83h-51z" />
    <glyph glyph-name="litre" unicode="&#x2113;" horiz-adv-x="494" 
d="M416 55q-63 -68 -131 -68q-49 0 -80 31q-35 38 -35 115v121q-3 -4 -26 -29t-35 -38q-5 6 -15.5 17.5t-15.5 17.5q30 34 92 102v235q0 83 31 126t85 43q48 0 71 -32t23 -71q0 -66 -29 -128.5t-83 -135.5q-4 -4 -16.5 -20t-17.5 -22v-188q0 -91 64 -91q43 0 90 53
q4 -6 13.5 -19t14.5 -19zM327 618q0 24 -9.5 40.5t-29.5 16.5q-54 0 -54 -116v-165q8 10 22 30q71 108 71 194z" />
    <glyph glyph-name="trademark" unicode="&#x2122;" horiz-adv-x="1000" 
d="M844 740h116v-422h-73v347l-157 -347h-48l-152 347v-347h-73v422h119l130 -293zM6 740h370v-69h-149v-353h-73v353h-148v69z" />
    <glyph glyph-name="Omega" unicode="&#x2126;" horiz-adv-x="712" 
d="M661 0h-225v57q29 25 51.5 49.5t48.5 64t40.5 92.5t14.5 114q0 121 -61 198.5t-171 77.5q-106 0 -172 -77.5t-66 -198.5q0 -189 156 -320v-57h-225v57h156q-157 123 -157 328q0 141 86.5 234t221.5 93q141 0 221.5 -89.5t80.5 -235.5q0 -109 -46.5 -193.5t-111.5 -136.5
h158v-57z" />
    <glyph glyph-name="estimated" unicode="&#x212e;" horiz-adv-x="662" 
d="M621 295h-455v-203q68 -66 162 -66q74 0 126 34t92 100q3 -2 16 -10t21 -12q-50 -74 -108.5 -112t-146.5 -38q-129 0 -208.5 88.5t-79.5 218.5q0 132 78.5 220t210.5 88q133 0 211 -87.5t81 -220.5zM492 333v165q-70 68 -164 68q-98 0 -162 -67v-166h326z" />
    <glyph glyph-name="partialdiff" unicode="&#x2202;" horiz-adv-x="577" 
d="M527 490q0 -90 -26 -194q-15 -58 -38.5 -109.5t-57.5 -97t-81 -72.5t-101 -27q-78 0 -125.5 51t-47.5 135q0 140 81.5 231.5t184.5 91.5q50 0 85.5 -22t52.5 -54h2q4 42 4 73q0 86 -37 131t-105 45q-51 0 -97 -27q-3 8 -9 24.5t-9 24.5q51 32 123 32q92 0 146.5 -61
t54.5 -175zM445 354q-11 41 -43 66.5t-82 25.5q-81 0 -142 -79.5t-61 -192.5q0 -59 30 -94.5t78 -35.5q75 0 134 84t86 226z" />
    <glyph glyph-name="Delta" unicode="&#x2206;" horiz-adv-x="610" 
d="M587 0h-565v35q112 303 244 665h80q40 -111 120.5 -332.5t120.5 -332.5v-35zM507 58q-31 86 -93 258.5t-93 258.5q-4 13 -9 31t-7 24h-3q-4 -20 -15 -54q-31 -87 -93.5 -259.5t-93.5 -258.5h407z" />
    <glyph glyph-name="product" unicode="&#x220f;" horiz-adv-x="721" 
d="M633 -230h-68v871h-409v-871h-68v930h545v-930z" />
    <glyph glyph-name="summation" unicode="&#x2211;" horiz-adv-x="632" 
d="M604 -230h-576v30q51 66 340 439q-41 55 -149 200.5t-167 224.5v36h527v-57h-436q200 -268 299 -403q-53 -69 -159.5 -206.5t-159.5 -206.5h481v-57z" />
    <glyph glyph-name="minus" unicode="&#x2212;" horiz-adv-x="606" 
d="M56 325v69h494v-69h-494z" />
    <glyph glyph-name="uni2215" unicode="&#x2215;" horiz-adv-x="166" 
d="M-138 -18h-54l455 754h55z" />
    <glyph glyph-name="uni2219" unicode="&#x2219;" horiz-adv-x="277" 
d="M124 419q24 0 41.5 -18t17.5 -42q0 -25 -17 -42t-42 -17t-42.5 17t-17.5 42q0 24 17.5 42t42.5 18z" />
    <glyph glyph-name="radical" unicode="&#x221a;" horiz-adv-x="515" 
d="M494 728q-180 -674 -198 -740h-56q-94 232 -142 348q-29 -16 -55 -32q-4 7 -11.5 21t-11.5 21q51 29 110 65q23 -56 68.5 -166.5t68.5 -166.5q29 108 86.5 325t86.5 325h54z" />
    <glyph glyph-name="infinity" unicode="&#x221e;" horiz-adv-x="785" 
d="M733 294q0 -68 -43.5 -115t-114.5 -47q-57 0 -104 32t-78 82h-2q-77 -114 -179 -114q-73 0 -117 44.5t-44 113.5q0 71 43.5 116t114.5 45q109 0 182 -113h2q75 113 178 113q71 0 116.5 -43t45.5 -114zM673 293q0 46 -26 76t-77 30q-81 0 -150 -107q63 -107 149 -107
q52 0 78 31t26 77zM364 292q-29 48 -69.5 77.5t-81.5 29.5q-50 0 -76.5 -31t-26.5 -78q0 -46 29.5 -76t73.5 -30q82 0 151 108z" />
    <glyph glyph-name="integral" unicode="&#x222b;" horiz-adv-x="492" 
d="M411 684q-20 9 -46 9q-86 0 -86 -102v-657q0 -75 -39 -117.5t-108 -42.5q-41 0 -67 11q3 9 7 26.5t7 26.5q22 -9 47 -9q86 0 86 102v658q0 74 39 117t109 43q42 0 66 -13q-2 -8 -7 -25.5t-8 -26.5z" />
    <glyph glyph-name="approxequal" unicode="&#x2248;" horiz-adv-x="606" 
d="M531 420q-55 -83 -130 -83q-54 0 -105 32t-88 32q-50 0 -87 -65l-45 50q55 83 131 83q51 0 103 -31q53 -33 89 -33q49 0 87 65zM531 203q-55 -83 -130 -83q-54 0 -105 32t-88 32q-50 0 -87 -65l-45 51q55 82 131 82q51 0 103 -31q53 -33 89 -33q49 0 87 65z" />
    <glyph glyph-name="notequal" unicode="&#x2260;" horiz-adv-x="606" 
d="M513 152h-242l-58 -126h-73l59 126h-105v68h137l69 150h-206v68h238l61 131h72l-61 -131h109v-68h-141l-70 -150h211v-68z" />
    <glyph glyph-name="lessequal" unicode="&#x2264;" horiz-adv-x="606" 
d="M513 0h-419v68h419v-68zM513 135l-419 194v50l419 194v-74l-321 -144v-2l321 -145v-73z" />
    <glyph glyph-name="greaterequal" unicode="&#x2265;" horiz-adv-x="606" 
d="M512 0h-418v68h418v-68zM513 329l-419 -194v74l321 144v2l-321 145v73l419 -193v-51z" />
    <glyph glyph-name="lozenge" unicode="&#x25ca;" horiz-adv-x="561" 
d="M505 350q-28 -48 -206 -350h-37q-108 185 -206 349q138 234 206 351h37q178 -302 206 -350zM445 350q-90 150 -164 278q-110 -186 -165 -278q28 -46 82 -139t82 -139q28 46 83 138.5t82 139.5z" />
    </font>
</defs>
</svg>
