<svg xmlns="http://www.w3.org/2000/svg" viewBox="0 0 299.995 299.995"><g fill="#006DF0"><path d="M139.415 96.195c-22.673 0-41.056 18.389-41.056 41.062 0 22.676 18.383 41.059 41.056 41.059 7.446 0 14.41-2.01 20.43-5.478a41.006 41.006 0 0 0 7.275-5.342c.08-.073.163-.145.241-.218a42.637 42.637 0 0 0 2.052-2.049l.106-.117a41.222 41.222 0 0 0 6.86-10.068c2.596-5.387 4.095-11.404 4.095-17.787 0-22.673-18.381-41.062-41.059-41.062zm19.841 50.778h-39.684a7.78 7.78 0 0 1-7.781-7.781 7.78 7.78 0 0 1 7.781-7.781h39.684a7.78 7.78 0 0 1 7.781 7.781 7.78 7.78 0 0 1-7.781 7.781z"/><path d="M149.995 0C67.156 0 0 67.158 0 149.995s67.156 150 149.995 150 150-67.163 150-150S232.834 0 149.995 0zm75.442 221.254a12.093 12.093 0 0 1-8.59 3.561c-3.11 0-6.217-1.185-8.593-3.561l-34.145-34.147a60.422 60.422 0 0 1-34.697 10.896c-33.548 0-60.742-27.196-60.742-60.744s27.194-60.742 60.742-60.742 60.744 27.194 60.744 60.742a60.452 60.452 0 0 1-9.28 32.259l34.56 34.56c4.747 4.739 4.747 12.434.001 17.176z"/></g></svg>